<?xml version="1.0" encoding="UTF-8" standalone="no"?>
<!-- Created with Inkscape (http://www.inkscape.org/) -->

<svg
   xmlns:dc="http://purl.org/dc/elements/1.1/"
   xmlns:cc="http://creativecommons.org/ns#"
   xmlns:rdf="http://www.w3.org/1999/02/22-rdf-syntax-ns#"
   xmlns:svg="http://www.w3.org/2000/svg"
   xmlns="http://www.w3.org/2000/svg"
   xmlns:sodipodi="http://sodipodi.sourceforge.net/DTD/sodipodi-0.dtd"
   xmlns:inkscape="http://www.inkscape.org/namespaces/inkscape"
   width="585.89923"
   height="372.59961"
   id="svg2"
   version="1.1"
   inkscape:version="0.48.2 r9819"
   sodipodi:docname="bracket.svg">
  <defs
     id="defs4" />
  <sodipodi:namedview
     id="base"
     pagecolor="#ffffff"
     bordercolor="#666666"
     borderopacity="1.0"
     inkscape:pageopacity="0.0"
     inkscape:pageshadow="2"
     inkscape:zoom="2"
     inkscape:cx="227.23154"
     inkscape:cy="221.89732"
     inkscape:document-units="in"
     inkscape:current-layer="layer1"
     showgrid="false"
     units="in"
     showguides="true"
     inkscape:guide-bbox="true"
     inkscape:window-width="2560"
     inkscape:window-height="1386"
     inkscape:window-x="0"
     inkscape:window-y="24"
     inkscape:window-maximized="1"
     inkscape:snap-global="true"
     inkscape:snap-bbox="true"
     inkscape:snap-bbox-midpoints="true"
     inkscape:object-nodes="false"
     inkscape:snap-object-midpoints="true"
     inkscape:bbox-nodes="true"
     fit-margin-left="0.25"
     fit-margin-top="0.25"
     fit-margin-right="0.25"
     fit-margin-bottom="0.25">
    <sodipodi:guide
       orientation="0,1"
       position="22.949626,22.949626"
       id="guide3755" />
    <sodipodi:guide
       orientation="1,0"
       position="22.949626,22.949626"
       id="guide3757" />
    <inkscape:grid
       type="xygrid"
       id="grid3759"
       empspacing="5"
       visible="true"
       enabled="true"
       snapvisiblegridlinesonly="true"
       units="in"
       spacingx="1in"
       spacingy="1in" />
    <sodipodi:guide
       orientation="1,0"
       position="56.699626,62.279626"
       id="guide3763" />
    <sodipodi:guide
       orientation="0,1"
       position="56.699626,62.279626"
       id="guide3795" />
    <sodipodi:guide
       orientation="1,0"
       position="326.69963,62.279626"
       id="guide3797" />
    <sodipodi:guide
       orientation="1,0"
       position="529.19963,62.279626"
       id="guide3801" />
  </sodipodi:namedview>
  <metadata
     id="metadata7">
    <rdf:RDF>
      <cc:Work
         rdf:about="">
        <dc:format>image/svg+xml</dc:format>
        <dc:type
           rdf:resource="http://purl.org/dc/dcmitype/StillImage" />
        <dc:title />
      </cc:Work>
    </rdf:RDF>
  </metadata>
  <g
     inkscape:label="Layer 1"
     inkscape:groupmode="layer"
     id="layer1"
     transform="translate(-67.050374,-612.70975)">
    <path
       style="fill:none;stroke:#000000;stroke-width:0.0918;stroke-linecap:butt;stroke-linejoin:miter;stroke-miterlimit:4;stroke-opacity:1;stroke-dasharray:none;stroke-dashoffset:0"
       d="m 85.058619,632.39238 -0.458245,330.41698 68.849626,0 0,-189.96261 206.55,0 0,189.96261 68.85,0 0,-189.96261 137.7,0 0,189.96261 68.85,0 0,-330.41698 z"
       id="rect2985"
       inkscape:connector-curvature="0"
       sodipodi:nodetypes="ccccccccccccc" />
    <path
       sodipodi:type="arc"
       style="fill:none;stroke:#000000;stroke-width:0.12743507;stroke-linecap:butt;stroke-linejoin:miter;stroke-miterlimit:4;stroke-opacity:1;stroke-dasharray:none;stroke-dashoffset:0"
       id="path3793"
       sodipodi:cx="-208"
       sodipodi:cy="634"
       sodipodi:rx="20"
       sodipodi:ry="19"
       d="m -188,634 a 20,19 0 1 1 -40,0 20,19 0 1 1 40,0 z"
       transform="matrix(0.68835956,0,0,0.724589,266.92879,463.64032)" />
    <path
       transform="matrix(0.68835956,0,0,0.724589,536.92879,463.64032)"
       d="m -188,634 a 20,19 0 1 1 -40,0 20,19 0 1 1 40,0 z"
       sodipodi:ry="19"
       sodipodi:rx="20"
       sodipodi:cy="634"
       sodipodi:cx="-208"
       id="path3799"
       style="fill:none;stroke:#000000;stroke-width:0.12743507;stroke-linecap:butt;stroke-linejoin:miter;stroke-miterlimit:4;stroke-opacity:1;stroke-dasharray:none;stroke-dashoffset:0"
       sodipodi:type="arc" />
    <path
       transform="matrix(0.68835956,0,0,0.724589,739.42879,463.64032)"
       d="m -188,634 a 20,19 0 1 1 -40,0 20,19 0 1 1 40,0 z"
       sodipodi:ry="19"
       sodipodi:rx="20"
       sodipodi:cy="634"
       sodipodi:cx="-208"
       id="path3803"
       style="fill:none;stroke:#000000;stroke-width:0.12743507;stroke-linecap:butt;stroke-linejoin:miter;stroke-miterlimit:4;stroke-opacity:1;stroke-dasharray:none;stroke-dashoffset:0"
       sodipodi:type="arc" />
    <path
       sodipodi:type="arc"
       style="fill:none;stroke:#000000;stroke-width:0.12416667;stroke-linecap:butt;stroke-linejoin:miter;stroke-miterlimit:4;stroke-opacity:1;stroke-dasharray:none;stroke-dashoffset:0"
       id="path3805"
       sodipodi:cx="-181"
       sodipodi:cy="483"
       sodipodi:rx="7"
       sodipodi:ry="7"
       d="m -174,483 a 7,7 0 1 1 -14,0 7,7 0 1 1 14,0 z"
       transform="matrix(0.72483222,0,0,0.72483222,233.44133,296.89654)" />
    <path
       transform="matrix(0.72483222,0,0,0.72483222,233.44133,450.07907)"
       d="m -174,483 a 7,7 0 1 1 -14,0 7,7 0 1 1 14,0 z"
       sodipodi:ry="7"
       sodipodi:rx="7"
       sodipodi:cy="483"
       sodipodi:cx="-181"
       id="path3811"
       style="fill:none;stroke:#000000;stroke-width:0.12416667;stroke-linecap:butt;stroke-linejoin:miter;stroke-miterlimit:4;stroke-opacity:1;stroke-dasharray:none;stroke-dashoffset:0"
       sodipodi:type="arc" />
    <path
       sodipodi:type="arc"
       style="fill:none;stroke:#000000;stroke-width:0.12416667;stroke-linecap:butt;stroke-linejoin:miter;stroke-miterlimit:4;stroke-opacity:1;stroke-dasharray:none;stroke-dashoffset:0"
       id="path3813"
       sodipodi:cx="-181"
       sodipodi:cy="483"
       sodipodi:rx="7"
       sodipodi:ry="7"
       d="m -174,483 a 7,7 0 1 1 -14,0 7,7 0 1 1 14,0 z"
       transform="matrix(0.72483222,0,0,0.72483222,747.13213,450.07907)" />
    <path
       transform="matrix(0.72483222,0,0,0.72483222,747.13213,296.89654)"
       d="m -174,483 a 7,7 0 1 1 -14,0 7,7 0 1 1 14,0 z"
       sodipodi:ry="7"
       sodipodi:rx="7"
       sodipodi:cy="483"
       sodipodi:cx="-181"
       id="path3815"
       style="fill:none;stroke:#000000;stroke-width:0.12416667;stroke-linecap:butt;stroke-linejoin:miter;stroke-miterlimit:4;stroke-opacity:1;stroke-dasharray:none;stroke-dashoffset:0"
       sodipodi:type="arc" />
    <path
       transform="matrix(0.72483222,0,0,0.72483222,233.44134,387.75409)"
       d="m -174,483 a 7,7 0 1 1 -14,0 7,7 0 1 1 14,0 z"
       sodipodi:ry="7"
       sodipodi:rx="7"
       sodipodi:cy="483"
       sodipodi:cx="-181"
       id="path3819"
       style="fill:none;stroke:#000000;stroke-width:0.12416667;stroke-linecap:butt;stroke-linejoin:miter;stroke-miterlimit:4;stroke-opacity:1;stroke-dasharray:none;stroke-dashoffset:0"
       sodipodi:type="arc" />
    <path
       sodipodi:type="arc"
       style="fill:none;stroke:#000000;stroke-width:0.12416667;stroke-linecap:butt;stroke-linejoin:miter;stroke-miterlimit:4;stroke-opacity:1;stroke-dasharray:none;stroke-dashoffset:0"
       id="path3821"
       sodipodi:cx="-181"
       sodipodi:cy="483"
       sodipodi:rx="7"
       sodipodi:ry="7"
       d="m -174,483 a 7,7 0 1 1 -14,0 7,7 0 1 1 14,0 z"
       transform="matrix(0.72483222,0,0,0.72483222,747.13214,387.75409)" />
  </g>
</svg>
