<?xml version="1.0" encoding="UTF-8" standalone="no"?>
<!-- Created with Inkscape (http://www.inkscape.org/) -->

<svg
   xmlns:dc="http://purl.org/dc/elements/1.1/"
   xmlns:cc="http://creativecommons.org/ns#"
   xmlns:rdf="http://www.w3.org/1999/02/22-rdf-syntax-ns#"
   xmlns:svg="http://www.w3.org/2000/svg"
   xmlns="http://www.w3.org/2000/svg"
   xmlns:sodipodi="http://sodipodi.sourceforge.net/DTD/sodipodi-0.dtd"
   xmlns:inkscape="http://www.inkscape.org/namespaces/inkscape"
   width="190.70828"
   height="191.77481"
   id="svg2"
   version="1.1"
   inkscape:version="0.48.4 r9939"
   sodipodi:docname="drum_offsets-need24.svg">
  <defs
     id="defs4" />
  <sodipodi:namedview
     id="base"
     pagecolor="#ffffff"
     bordercolor="#666666"
     borderopacity="1.0"
     inkscape:pageopacity="0.0"
     inkscape:pageshadow="2"
     inkscape:zoom="1.4142136"
     inkscape:cx="-28.217367"
     inkscape:cy="186.59881"
     inkscape:document-units="px"
     inkscape:current-layer="layer1"
     showgrid="false"
     inkscape:snap-global="true"
     inkscape:snap-bbox="true"
     inkscape:snap-bbox-midpoints="true"
     fit-margin-top="2"
     fit-margin-left="2"
     fit-margin-right="2"
     fit-margin-bottom="2"
     inkscape:window-width="1364"
     inkscape:window-height="747"
     inkscape:window-x="0"
     inkscape:window-y="19"
     inkscape:window-maximized="0" />
  <metadata
     id="metadata7">
    <rdf:RDF>
      <cc:Work
         rdf:about="">
        <dc:format>image/svg+xml</dc:format>
        <dc:type
           rdf:resource="http://purl.org/dc/dcmitype/StillImage" />
        <dc:title></dc:title>
      </cc:Work>
    </rdf:RDF>
  </metadata>
  <g
     inkscape:label="Layer 1"
     inkscape:groupmode="layer"
     id="layer1"
     transform="translate(-4.1477569,-6.594489)">
    <g
       id="g14092"
       transform="translate(-8,-60)"
       style="stroke-width:0.09;stroke-miterlimit:4;stroke-dasharray:none">
      <path
         transform="matrix(0.30165134,0,0,0.32124197,24.088326,69.68188)"
         d="m 271.42857,143.79076 c 0,77.31986 -66.5177,140 -148.57143,140 -82.053733,0 -148.571427,-62.68014 -148.571427,-140 0,-77.319869 66.517694,-140.0000038 148.571427,-140.0000038 82.05373,0 148.57143,62.6801348 148.57143,140.0000038 z"
         sodipodi:ry="140"
         sodipodi:rx="148.57143"
         sodipodi:cy="143.79076"
         sodipodi:cx="122.85714"
         id="path2987"
         style="fill:none;stroke:#000000;stroke-width:0.28911707;stroke-miterlimit:4;stroke-opacity:1;stroke-dasharray:none"
         sodipodi:type="arc" />
      <path
         transform="matrix(0.3760785,0,0,0.43733438,42.344422,66.73366)"
         d="m 57,112.36218 c 0,3.31371 -3.134007,6 -7,6 -3.865993,0 -7,-2.68629 -7,-6 0,-3.31371 3.134007,-6 7,-6 3.865993,0 7,2.68629 7,6 z"
         sodipodi:ry="6"
         sodipodi:rx="7"
         sodipodi:cy="112.36218"
         sodipodi:cx="50"
         id="path3757"
         style="fill:none;stroke:#000000;stroke-width:0.22192;stroke-linecap:butt;stroke-linejoin:round;stroke-miterlimit:4;stroke-opacity:1;stroke-dasharray:none;stroke-dashoffset:0"
         sodipodi:type="arc" />
    </g>
    <g
       transform="translate(86.828427,-62.242641)"
       id="g14100"
       style="stroke-width:0.09;stroke-miterlimit:4;stroke-dasharray:none">
      <path
         sodipodi:type="arc"
         style="fill:none;stroke:#000000;stroke-width:0.28911707;stroke-miterlimit:4;stroke-opacity:1;stroke-dasharray:none"
         id="path14102"
         sodipodi:cx="122.85714"
         sodipodi:cy="143.79076"
         sodipodi:rx="148.57143"
         sodipodi:ry="140"
         d="m 271.42857,143.79076 c 0,77.31986 -66.5177,140 -148.57143,140 -82.053733,0 -148.571427,-62.68014 -148.571427,-140 0,-77.319869 66.517694,-140.0000038 148.571427,-140.0000038 82.05373,0 148.57143,62.6801348 148.57143,140.0000038 z"
         transform="matrix(0.30165134,0,0,0.32124197,24.088326,69.68188)" />
      <path
         sodipodi:type="arc"
         style="fill:none;stroke:#000000;stroke-width:0.22192;stroke-linecap:butt;stroke-linejoin:round;stroke-miterlimit:4;stroke-opacity:1;stroke-dasharray:none;stroke-dashoffset:0"
         id="path14104"
         sodipodi:cx="50"
         sodipodi:cy="112.36218"
         sodipodi:rx="7"
         sodipodi:ry="6"
         d="m 57,112.36218 c 0,3.31371 -3.134007,6 -7,6 -3.865993,0 -7,-2.68629 -7,-6 0,-3.31371 3.134007,-6 7,-6 3.865993,0 7,2.68629 7,6 z"
         transform="matrix(0.3760785,0,0,0.43733438,42.344422,66.73366)" />
    </g>
    <g
       transform="translate(-10.12132,35.459415)"
       id="g14106"
       style="stroke-width:0.09;stroke-miterlimit:4;stroke-dasharray:none">
      <path
         sodipodi:type="arc"
         style="fill:none;stroke:#000000;stroke-width:0.28911707;stroke-miterlimit:4;stroke-opacity:1;stroke-dasharray:none"
         id="path14108"
         sodipodi:cx="122.85714"
         sodipodi:cy="143.79076"
         sodipodi:rx="148.57143"
         sodipodi:ry="140"
         d="m 271.42857,143.79076 c 0,77.31986 -66.5177,140 -148.57143,140 -82.053733,0 -148.571427,-62.68014 -148.571427,-140 0,-77.319869 66.517694,-140.0000038 148.571427,-140.0000038 82.05373,0 148.57143,62.6801348 148.57143,140.0000038 z"
         transform="matrix(0.30165134,0,0,0.32124197,24.088326,69.68188)" />
      <path
         sodipodi:type="arc"
         style="fill:none;stroke:#000000;stroke-width:0.22192;stroke-linecap:butt;stroke-linejoin:round;stroke-miterlimit:4;stroke-opacity:1;stroke-dasharray:none;stroke-dashoffset:0"
         id="path14110"
         sodipodi:cx="50"
         sodipodi:cy="112.36218"
         sodipodi:rx="7"
         sodipodi:ry="6"
         d="m 57,112.36218 c 0,3.31371 -3.134007,6 -7,6 -3.865993,0 -7,-2.68629 -7,-6 0,-3.31371 3.134007,-6 7,-6 3.865993,0 7,2.68629 7,6 z"
         transform="matrix(0.3760785,0,0,0.43733438,42.344422,66.73366)" />
    </g>
    <g
       id="g14112"
       transform="translate(84.707106,33.216774)"
       style="stroke-width:0.09;stroke-miterlimit:4;stroke-dasharray:none">
      <path
         transform="matrix(0.30165134,0,0,0.32124197,24.088326,69.68188)"
         d="m 271.42857,143.79076 c 0,77.31986 -66.5177,140 -148.57143,140 -82.053733,0 -148.571427,-62.68014 -148.571427,-140 0,-77.319869 66.517694,-140.0000038 148.571427,-140.0000038 82.05373,0 148.57143,62.6801348 148.57143,140.0000038 z"
         sodipodi:ry="140"
         sodipodi:rx="148.57143"
         sodipodi:cy="143.79076"
         sodipodi:cx="122.85714"
         id="path14114"
         style="fill:none;stroke:#000000;stroke-width:0.28911707;stroke-miterlimit:4;stroke-opacity:1;stroke-dasharray:none"
         sodipodi:type="arc" />
      <path
         transform="matrix(0.3760785,0,0,0.43733438,42.344422,66.73366)"
         d="m 57,112.36218 c 0,3.31371 -3.134007,6 -7,6 -3.865993,0 -7,-2.68629 -7,-6 0,-3.31371 3.134007,-6 7,-6 3.865993,0 7,2.68629 7,6 z"
         sodipodi:ry="6"
         sodipodi:rx="7"
         sodipodi:cy="112.36218"
         sodipodi:cx="50"
         id="path14116"
         style="fill:none;stroke:#000000;stroke-width:0.22192;stroke-linecap:butt;stroke-linejoin:round;stroke-miterlimit:4;stroke-opacity:1;stroke-dasharray:none;stroke-dashoffset:0"
         sodipodi:type="arc" />
    </g>
  </g>
</svg>
