<?xml version="1.0" encoding="UTF-8" standalone="no"?>
<!-- Created with Inkscape (http://www.inkscape.org/) -->

<svg
   xmlns:dc="http://purl.org/dc/elements/1.1/"
   xmlns:cc="http://creativecommons.org/ns#"
   xmlns:rdf="http://www.w3.org/1999/02/22-rdf-syntax-ns#"
   xmlns:svg="http://www.w3.org/2000/svg"
   xmlns="http://www.w3.org/2000/svg"
   xmlns:sodipodi="http://sodipodi.sourceforge.net/DTD/sodipodi-0.dtd"
   xmlns:inkscape="http://www.inkscape.org/namespaces/inkscape"
   width="18in"
   height="12in"
   viewBox="0 0 457.20001 304.80001"
   version="1.1"
   id="svg5859"
   inkscape:version="0.92.3 (2405546, 2018-03-11)"
   sodipodi:docname="new-insert-cut4-bottom1.svg">
  <defs
     id="defs5853" />
  <sodipodi:namedview
     id="base"
     pagecolor="#ffffff"
     bordercolor="#666666"
     borderopacity="1.0"
     inkscape:pageopacity="0.0"
     inkscape:pageshadow="2"
     inkscape:zoom="0.7"
     inkscape:cx="682.78149"
     inkscape:cy="585.9263"
     inkscape:document-units="in"
     inkscape:current-layer="layer1"
     showgrid="false"
     units="in"
     inkscape:window-width="1916"
     inkscape:window-height="1036"
     inkscape:window-x="0"
     inkscape:window-y="20"
     inkscape:window-maximized="1"
     inkscape:snap-global="false" />
  <metadata
     id="metadata5856">
    <rdf:RDF>
      <cc:Work
         rdf:about="">
        <dc:format>image/svg+xml</dc:format>
        <dc:type
           rdf:resource="http://purl.org/dc/dcmitype/StillImage" />
        <dc:title></dc:title>
      </cc:Work>
    </rdf:RDF>
  </metadata>
  <g
     inkscape:label="Layer 1"
     inkscape:groupmode="layer"
     id="layer1"
     transform="translate(0,7.8000168)">
    <path
       style="fill:#000000;fill-opacity:0.44505496;stroke:none;stroke-width:0;stroke-miterlimit:4;stroke-dasharray:none;stroke-opacity:1"
       d="m 2.2678636,163.40824 h 6.35 V 282.78807 H 141.96787 v 12.7 h 101.6 v -12.7 H 376.91788 V 163.40824 h 6.35 v -50.79999 h -6.35 V 12.913064 a 12.7,12.7 0 0 0 -0.032,-0.89866 12.7,12.7 0 0 0 -0.15296,-1.260389 12.7,12.7 0 0 0 -0.27802,-1.2381713 12.7,12.7 0 0 0 -0.39998,-1.2051 12.7,12.7 0 0 0 -0.51882,-1.15858 12.7,12.7 0 0 0 -0.6315,-1.101229 12.7,12.7 0 0 0 -0.73846,-1.032481 12.7,12.7 0 0 0 -0.83767,-0.95395 12.7,12.7 0 0 0 -0.92913,-0.86506 12.7,12.7 0 0 0 -1.01079,-0.76843 12.7,12.7 0 0 0 -1.08212,-0.66352 12.7,12.7 0 0 0 -1.14308,-0.55192 12.7,12.7 0 0 0 -1.19216,-0.43564 12.7,12.7 0 0 0 -1.23042,-0.31419 12.7,12.7 0 0 0 -1.25524,-0.18965 12.7,12.7 0 0 0 -1.26761,-0.063 H 218.16787 v -6.35 h -50.80001 v 6.35 H 21.317863 a 12.7,12.7 0 0 0 -0.89866,0.0315 12.7,12.7 0 0 0 -1.25987,0.15296 12.7,12.7 0 0 0 -1.23867,0.278021 12.7,12.7 0 0 0 -1.20459,0.4005 12.7,12.7 0 0 0 -1.15909,0.51829 12.7,12.7 0 0 0 -1.10122,0.632009 12.7,12.7 0 0 0 -1.03251,0.73845 12.7,12.7 0 0 0 -0.95343,0.8377 12.7,12.7 0 0 0 -0.86558,0.92861 12.7,12.7 0 0 0 -0.768429,1.01079 12.7,12.7 0 0 0 -0.66353,1.08212 12.7,12.7 0 0 0 -0.5518904,1.14308 12.7,12.7 0 0 0 -0.43513,1.19269 12.7,12.7 0 0 0 -0.31417,1.2298803 12.7,12.7 0 0 0 -0.18965,1.25524 12.7,12.7 0 0 0 -0.0636,1.26762 v 99.695716 h -6.35 z"
       id="path2895"
       inkscape:connector-curvature="0" />
  </g>
</svg>
