<?xml version="1.0" encoding="UTF-8" standalone="no"?>
<!-- Created with Inkscape (http://www.inkscape.org/) -->

<svg
   xmlns:dc="http://purl.org/dc/elements/1.1/"
   xmlns:cc="http://creativecommons.org/ns#"
   xmlns:rdf="http://www.w3.org/1999/02/22-rdf-syntax-ns#"
   xmlns:svg="http://www.w3.org/2000/svg"
   xmlns="http://www.w3.org/2000/svg"
   xmlns:sodipodi="http://sodipodi.sourceforge.net/DTD/sodipodi-0.dtd"
   xmlns:inkscape="http://www.inkscape.org/namespaces/inkscape"
   width="18in"
   height="12in"
   viewBox="0 0 457.20001 304.80001"
   version="1.1"
   id="svg5859"
   inkscape:version="0.92.3 (2405546, 2018-03-11)"
   sodipodi:docname="new-insert-cut2-side-nocable.svg">
  <defs
     id="defs5853" />
  <sodipodi:namedview
     id="base"
     pagecolor="#ffffff"
     bordercolor="#666666"
     borderopacity="1.0"
     inkscape:pageopacity="0.0"
     inkscape:pageshadow="2"
     inkscape:zoom="0.98994949"
     inkscape:cx="927.09375"
     inkscape:cy="778.14555"
     inkscape:document-units="in"
     inkscape:current-layer="layer1"
     showgrid="false"
     units="in"
     inkscape:window-width="1916"
     inkscape:window-height="1036"
     inkscape:window-x="0"
     inkscape:window-y="20"
     inkscape:window-maximized="1"
     inkscape:snap-global="true"
     inkscape:snap-bbox="true"
     inkscape:bbox-paths="true"
     inkscape:snap-bbox-edge-midpoints="false"
     showguides="true"
     inkscape:guide-bbox="true"
     inkscape:snap-bbox-midpoints="true">
    <sodipodi:guide
       position="84.969269,245.91095"
       orientation="0,1"
       id="guide3079"
       inkscape:locked="false" />
  </sodipodi:namedview>
  <metadata
     id="metadata5856">
    <rdf:RDF>
      <cc:Work
         rdf:about="">
        <dc:format>image/svg+xml</dc:format>
        <dc:type
           rdf:resource="http://purl.org/dc/dcmitype/StillImage" />
        <dc:title />
      </cc:Work>
    </rdf:RDF>
  </metadata>
  <g
     inkscape:label="Layer 1"
     inkscape:groupmode="layer"
     id="layer1"
     transform="translate(0,7.8000168)">
    <path
       id="path5735"
       transform="matrix(0.26458334,0,0,0.26458334,0,-7.8000168)"
       style="fill:none;fill-opacity:0.22527472;stroke:#000000;stroke-width:0.09599999;stroke-miterlimit:4;stroke-dasharray:none;stroke-opacity:1"
       d="M 33.142578,6.5703125 A 47.999984,47.999984 0 0 0 28.351562,6.8125 a 47.999984,47.999984 0 0 0 -4.742187,0.7167969 47.999984,47.999984 0 0 0 -4.650391,1.1875 47.999984,47.999984 0 0 0 -4.505859,1.6445311 47.999984,47.999984 0 0 0 -4.320313,2.087891 47.999984,47.999984 0 0 0 -0.9882808,0.605469 V 96.074219 222.57227 H 81.144531 v 216 H 561.14453 v -216 h 108 v 204 h 72 v -204 h 108 v 216 h 479.99997 v -216 h 72 V 96.099609 a 47.999991,47.999991 0 0 1 -0.072,0.04492 V 77.714844 h -0.1817 V 13.074219 a 47.999995,48.000448 0 0 0 -2.2246,-1.277344 47.999995,48.000448 0 0 0 -4.3808,-1.9589844 47.999995,48.000448 0 0 0 -4.5528,-1.5136718 47.999995,48.000448 0 0 0 -4.6816,-1.0507813 47.999995,48.000448 0 0 0 -4.7617,-0.5800781 47.999995,48.000448 0 0 0 -3.25,-0.1113282 V 6.5703125 H 801.14453 V 30.570312 h -192 V 6.5703125 H 33.144531 a 47.999984,47.999984 0 0 1 -0.002,0 z" />
    <g
       transform="matrix(0,1,1,0,443.62026,-430.02851)"
       id="g5743">
      <rect
         y="-263.401"
         x="430.31729"
         height="25.4"
         width="50.799999"
         id="rect5737"
         style="fill:#ff0000;fill-opacity:0.44505496;stroke:none;stroke-width:0.34163696;stroke-miterlimit:4;stroke-dasharray:2.73309549, 2.73309549;stroke-dashoffset:0;stroke-opacity:1" />
      <ellipse
         transform="rotate(90)"
         cy="-468.4173"
         cx="-250.701"
         style="fill:none;fill-opacity:1;stroke:#000000;stroke-width:0.0254;stroke-miterlimit:4;stroke-dasharray:none;stroke-dashoffset:0;stroke-opacity:1"
         id="ellipse5739"
         rx="0.74150097"
         ry="0.74166775" />
      <ellipse
         transform="rotate(90)"
         cy="-443.0173"
         cx="-250.701"
         style="fill:none;fill-opacity:1;stroke:#000000;stroke-width:0.0254;stroke-miterlimit:4;stroke-dasharray:none;stroke-dashoffset:0;stroke-opacity:1"
         id="ellipse5741"
         rx="0.74150097"
         ry="0.74166775" />
    </g>
    <circle
       id="ellipse5747"
       style="fill:none;fill-opacity:1;stroke:#000000;stroke-width:0.0254;stroke-miterlimit:4;stroke-dasharray:none;stroke-dashoffset:0;stroke-opacity:1"
       cx="51.089043"
       cy="84.969269"
       transform="matrix(0,1,1,0,0,0)"
       r="3.8831985" />
    <path
       id="path5753"
       transform="matrix(0.26458334,0,0,0.26458334,0,-7.8000168)"
       style="fill:none;fill-opacity:0.22527472;stroke:#000000;stroke-width:0.09599999;stroke-miterlimit:4;stroke-dasharray:none;stroke-opacity:1"
       d="m 63.142578,508.60938 a 47.999987,47.999987 0 0 0 -4.791016,0.24218 47.999987,47.999987 0 0 0 -4.742187,0.7168 47.999987,47.999987 0 0 0 -4.650391,1.1875 47.999987,47.999987 0 0 0 -4.505859,1.64453 47.999987,47.999987 0 0 0 -4.320313,2.08789 47.999987,47.999987 0 0 0 -0.988281,0.60547 v 83.01758 126.50195 h -24 v 120 2.5 93.49805 H 687.14453 v -12 h 96 v 12 h 671.99997 v -95.99219 -120 h -24 V 598.13672 a 47.999995,47.999995 0 0 1 -0.2519,0.1543 v -9.86329 h -0 v -73.3164 a 47.999999,48.000452 0 0 0 -2.2246,-1.27735 47.999999,48.000452 0 0 0 -4.3808,-1.95898 47.999999,48.000452 0 0 0 -4.5528,-1.51367 47.999999,48.000452 0 0 0 -4.6816,-1.05078 47.999999,48.000452 0 0 0 -4.7617,-0.58008 47.999999,48.000452 0 0 0 -3.25,-0.11133 v -0.01 H 831.14453 v 24 h -192 v -24 H 63.144531 a 47.999987,47.999987 0 0 1 -0.002,0 z" />
    <g
       id="g5767"
       transform="matrix(0.26458333,0,0,-0.26458333,-61.2616,535.77955)"
       style="stroke:#000000;stroke-opacity:1;stroke-width:0.096;stroke-miterlimit:4;stroke-dasharray:none;fill:none">
      <g
         style="fill:none;stroke:#000000;stroke-width:0.096;stroke-miterlimit:4;stroke-dasharray:none;stroke-opacity:1"
         id="g5759"
         transform="translate(8.3340574e-5,2.5448628e-4)">
        <ellipse
           ry="2.8031538"
           rx="2.8025234"
           id="ellipse5755"
           style="fill:none;fill-opacity:1;stroke:#000000;stroke-width:0.096;stroke-miterlimit:4;stroke-dasharray:none;stroke-dashoffset:0;stroke-opacity:1"
           cx="303.80362"
           cy="1158.8494" />
        <ellipse
           ry="2.8031538"
           rx="2.8025234"
           id="ellipse5757"
           style="fill:none;fill-opacity:1;stroke:#000000;stroke-width:0.096;stroke-miterlimit:4;stroke-dasharray:none;stroke-dashoffset:0;stroke-opacity:1"
           cx="303.80359"
           cy="1272.2352" />
      </g>
      <g
         style="fill:none;stroke:#000000;stroke-width:0.096;stroke-miterlimit:4;stroke-dasharray:none;stroke-opacity:1"
         transform="translate(557.76009,2.0588966e-4)"
         id="g5765">
        <ellipse
           ry="2.8031538"
           rx="2.8025234"
           id="ellipse5761"
           style="fill:none;fill-opacity:1;stroke:#000000;stroke-width:0.096;stroke-miterlimit:4;stroke-dasharray:none;stroke-dashoffset:0;stroke-opacity:1"
           cx="303.80362"
           cy="1158.8494" />
        <ellipse
           ry="2.8031538"
           rx="2.8025234"
           id="ellipse5763"
           style="fill:none;fill-opacity:1;stroke:#000000;stroke-width:0.096;stroke-miterlimit:4;stroke-dasharray:none;stroke-dashoffset:0;stroke-opacity:1"
           cx="303.80359"
           cy="1272.2352" />
      </g>
    </g>
    <g
       transform="matrix(0.26458333,0,0,-0.26458333,141.9384,535.77955)"
       id="g5781"
       style="stroke:#000000;stroke-opacity:1;stroke-width:0.096;stroke-miterlimit:4;stroke-dasharray:none;fill:none">
      <g
         transform="translate(8.3340574e-5,2.5448628e-4)"
         id="g5773"
         style="fill:none;stroke:#000000;stroke-width:0.096;stroke-miterlimit:4;stroke-dasharray:none;stroke-opacity:1">
        <ellipse
           cy="1158.8494"
           cx="303.80362"
           style="fill:none;fill-opacity:1;stroke:#000000;stroke-width:0.096;stroke-miterlimit:4;stroke-dasharray:none;stroke-dashoffset:0;stroke-opacity:1"
           id="ellipse5769"
           rx="2.8025234"
           ry="2.8031538" />
        <ellipse
           cy="1272.2352"
           cx="303.80359"
           style="fill:none;fill-opacity:1;stroke:#000000;stroke-width:0.096;stroke-miterlimit:4;stroke-dasharray:none;stroke-dashoffset:0;stroke-opacity:1"
           id="ellipse5771"
           rx="2.8025234"
           ry="2.8031538" />
      </g>
      <g
         id="g5779"
         transform="translate(557.76009,2.0588966e-4)"
         style="fill:none;stroke:#000000;stroke-width:0.096;stroke-miterlimit:4;stroke-dasharray:none;stroke-opacity:1">
        <ellipse
           cy="1158.8494"
           cx="303.80362"
           style="fill:none;fill-opacity:1;stroke:#000000;stroke-width:0.096;stroke-miterlimit:4;stroke-dasharray:none;stroke-dashoffset:0;stroke-opacity:1"
           id="ellipse5775"
           rx="2.8025234"
           ry="2.8031538" />
        <ellipse
           cy="1272.2352"
           cx="303.80359"
           style="fill:none;fill-opacity:1;stroke:#000000;stroke-width:0.096;stroke-miterlimit:4;stroke-dasharray:none;stroke-dashoffset:0;stroke-opacity:1"
           id="ellipse5777"
           rx="2.8025234"
           ry="2.8031538" />
      </g>
    </g>
    <g
       id="g5789"
       transform="matrix(0,1,1,0,451.5578,-297.19789)">
      <rect
         style="fill:#ff0000;fill-opacity:0.44505496;stroke:none;stroke-width:0.34163696;stroke-miterlimit:4;stroke-dasharray:2.73309549, 2.73309549;stroke-dashoffset:0;stroke-opacity:1"
         id="rect5783"
         width="50.799999"
         height="25.4"
         x="430.31729"
         y="-263.401" />
      <ellipse
         ry="0.74166775"
         rx="0.74150097"
         id="ellipse5785"
         style="fill:none;fill-opacity:1;stroke:#000000;stroke-width:0.0254;stroke-miterlimit:4;stroke-dasharray:none;stroke-dashoffset:0;stroke-opacity:1"
         cx="-250.701"
         cy="-468.4173"
         transform="rotate(90)" />
      <ellipse
         ry="0.74166775"
         rx="0.74150097"
         id="ellipse5787"
         style="fill:none;fill-opacity:1;stroke:#000000;stroke-width:0.0254;stroke-miterlimit:4;stroke-dasharray:none;stroke-dashoffset:0;stroke-opacity:1"
         cx="-250.701"
         cy="-443.0173"
         transform="rotate(90)" />
    </g>
    <rect
       style="fill:none;fill-opacity:0.44505496;stroke:#000000;stroke-width:0.0254;stroke-miterlimit:4;stroke-dasharray:none;stroke-dashoffset:0;stroke-opacity:1"
       id="rect2815"
       width="253.99998"
       height="12.700001"
       x="18.840546"
       y="112.31633" />
    <rect
       y="244.1579"
       x="5.2962232"
       height="12.700001"
       width="253.99998"
       id="rect7046"
       style="fill:none;fill-opacity:0.44505496;stroke:#000000;stroke-width:0.0254;stroke-miterlimit:4;stroke-dasharray:none;stroke-dashoffset:0;stroke-opacity:1" />
    <rect
       y="259.48465"
       x="6.0116086"
       height="12.700001"
       width="253.99998"
       id="rect7052"
       style="fill:none;fill-opacity:0.44505496;stroke:#000000;stroke-width:0.0254;stroke-miterlimit:4;stroke-dasharray:none;stroke-dashoffset:0;stroke-opacity:1" />
    <rect
       style="fill:none;fill-opacity:0.44505496;stroke:#000000;stroke-width:0.0254;stroke-miterlimit:4;stroke-dasharray:none;stroke-dashoffset:0;stroke-opacity:1"
       id="rect7054"
       width="253.99998"
       height="12.700001"
       x="-3.5423207"
       y="-434.78088"
       transform="rotate(90)" />
    <rect
       style="fill:none;fill-opacity:0.32876713;stroke:#000000;stroke-width:0.0254;stroke-miterlimit:4;stroke-dasharray:none;stroke-dashoffset:0;stroke-opacity:1"
       id="rect2852"
       width="63.499996"
       height="63.499996"
       x="355.77386"
       y="55.672375" />
    <circle
       r="3.8831985"
       transform="matrix(0,1,1,0,0,0)"
       cy="288.16925"
       cx="51.089039"
       style="fill:none;fill-opacity:1;stroke:#000000;stroke-width:0.0254;stroke-miterlimit:4;stroke-dasharray:none;stroke-dashoffset:0;stroke-opacity:1"
       id="circle3081" />
    <circle
       id="circle3083"
       style="fill:none;fill-opacity:1;stroke:#000000;stroke-width:0.0254;stroke-miterlimit:4;stroke-dasharray:none;stroke-dashoffset:0;stroke-opacity:1"
       cx="183.91966"
       cy="296.10678"
       transform="matrix(0,1,1,0,0,0)"
       r="3.8831985" />
    <circle
       r="3.8831985"
       transform="matrix(0,1,1,0,0,0)"
       cy="92.906807"
       cx="183.91966"
       style="fill:none;fill-opacity:1;stroke:#000000;stroke-width:0.0254;stroke-miterlimit:4;stroke-dasharray:none;stroke-dashoffset:0;stroke-opacity:1"
       id="circle3085" />
  </g>
</svg>
