<?xml version="1.0" encoding="UTF-8" standalone="no"?>
<!-- Created with Inkscape (http://www.inkscape.org/) -->

<svg
   xmlns:dc="http://purl.org/dc/elements/1.1/"
   xmlns:cc="http://creativecommons.org/ns#"
   xmlns:rdf="http://www.w3.org/1999/02/22-rdf-syntax-ns#"
   xmlns:svg="http://www.w3.org/2000/svg"
   xmlns="http://www.w3.org/2000/svg"
   xmlns:sodipodi="http://sodipodi.sourceforge.net/DTD/sodipodi-0.dtd"
   xmlns:inkscape="http://www.inkscape.org/namespaces/inkscape"
   width="15.2in"
   height="4.4000001in"
   viewBox="0 0 386.08 111.76001"
   version="1.1"
   id="svg2038"
   inkscape:version="0.92.3 (2405546, 2018-03-11)"
   sodipodi:docname="new-insert-take2-side2.svg">
  <defs
     id="defs2032" />
  <sodipodi:namedview
     id="base"
     pagecolor="#ffffff"
     bordercolor="#666666"
     borderopacity="1.0"
     inkscape:pageopacity="0.0"
     inkscape:pageshadow="2"
     inkscape:zoom="0.7"
     inkscape:cx="820.0192"
     inkscape:cy="72.11084"
     inkscape:document-units="in"
     inkscape:current-layer="layer1"
     showgrid="false"
     units="in"
     inkscape:window-width="1916"
     inkscape:window-height="1036"
     inkscape:window-x="0"
     inkscape:window-y="20"
     inkscape:window-maximized="1" />
  <metadata
     id="metadata2035">
    <rdf:RDF>
      <cc:Work
         rdf:about="">
        <dc:format>image/svg+xml</dc:format>
        <dc:type
           rdf:resource="http://purl.org/dc/dcmitype/StillImage" />
        <dc:title />
      </cc:Work>
    </rdf:RDF>
  </metadata>
  <g
     inkscape:label="Layer 1"
     inkscape:groupmode="layer"
     id="layer1"
     transform="translate(0,-185.23999)">
    <path
       style="fill:none;fill-opacity:0.22527472;stroke:#000000;stroke-width:0.0254;stroke-miterlimit:4;stroke-dasharray:none;stroke-opacity:1"
       d="m 21.721155,187.31221 c 0,16.93868 0,33.87735 0,50.81603 -6.344417,-0.005 -12.6716682,0.007 -19.008659,0.009 -0.078604,19.01308 -0.026497,38.15688 -0.041341,57.23372 114.336435,-0.0188 228.068405,-0.0614 342.364335,0 8.62282,0 17.24567,0 25.8685,0 -0.046,-15.03893 0.12393,-29.07897 0.0672,-44.31591 0.0299,-4.34946 -0.0666,-8.57251 -0.0408,-12.91781 -6.33849,-8.2e-4 -12.66407,-0.0146 -19.00918,-0.009 0,-16.93868 0,-33.87735 0,-50.81603 -42.33333,0 -84.66667,0 -127,0 0,16.93334 0,33.86667 0,50.80001 -9.525,0 -19.05,0 -28.575,0 0,-15.875 0,-31.75 0,-47.625 -6.35,0 -12.7,0 -19.05,0 0,15.875 0,31.75 0,47.625 -9.525,0 -19.05,0 -28.575,0 0,-16.93334 0,-33.86667 0,-50.80001 -42.33334,0 -84.666671,0 -127.000005,0 z"
       id="path6642"
       inkscape:connector-curvature="0" />
    <rect
       y="180.47148"
       x="-295.26233"
       height="25.4"
       width="50.799999"
       id="rect2912"
       style="fill:none;fill-opacity:0.44505496;stroke:#000000;stroke-width:0.50800002;stroke-miterlimit:4;stroke-dasharray:none;stroke-dashoffset:0;stroke-opacity:1"
       transform="rotate(-90)" />
    <ellipse
       cy="257.16232"
       cx="193.17148"
       style="fill:none;fill-opacity:1;stroke:#000000;stroke-width:0.0254;stroke-miterlimit:4;stroke-dasharray:none;stroke-dashoffset:0;stroke-opacity:1"
       id="ellipse2914"
       rx="0.74150097"
       ry="0.74166775" />
    <ellipse
       cy="282.56232"
       cx="193.17148"
       style="fill:none;fill-opacity:1;stroke:#000000;stroke-width:0.0254;stroke-miterlimit:4;stroke-dasharray:none;stroke-dashoffset:0;stroke-opacity:1"
       id="ellipse2916"
       rx="0.74150097"
       ry="0.74166775" />
    <circle
       id="circle3083"
       style="fill:none;fill-opacity:1;stroke:#000000;stroke-width:0.0254;stroke-miterlimit:4;stroke-dasharray:none;stroke-dashoffset:0;stroke-opacity:1"
       cx="244.46207"
       cy="85.221489"
       transform="matrix(0,1,1,0,0,0)"
       r="3.8831985" />
    <circle
       r="3.8831985"
       transform="matrix(0,1,1,0,0,0)"
       cy="288.42148"
       cx="244.46207"
       style="fill:none;fill-opacity:1;stroke:#000000;stroke-width:0.0254;stroke-miterlimit:4;stroke-dasharray:none;stroke-dashoffset:0;stroke-opacity:1"
       id="circle3102" />
    <ellipse
       ry="6.3378015"
       rx="6.3378019"
       cy="276.21231"
       cx="218.57149"
       id="ellipse3146"
       style="fill:none;fill-opacity:0.32876713;stroke:#000000;stroke-width:0.0254;stroke-miterlimit:4;stroke-dasharray:none;stroke-dashoffset:0;stroke-opacity:1" />
  </g>
</svg>
