<?xml version="1.0" encoding="UTF-8" standalone="no"?>
<!-- Created with Inkscape (http://www.inkscape.org/) -->

<svg
   xmlns:dc="http://purl.org/dc/elements/1.1/"
   xmlns:cc="http://creativecommons.org/ns#"
   xmlns:rdf="http://www.w3.org/1999/02/22-rdf-syntax-ns#"
   xmlns:svg="http://www.w3.org/2000/svg"
   xmlns="http://www.w3.org/2000/svg"
   xmlns:sodipodi="http://sodipodi.sourceforge.net/DTD/sodipodi-0.dtd"
   xmlns:inkscape="http://www.inkscape.org/namespaces/inkscape"
   width="18in"
   height="12in"
   viewBox="0 0 457.20001 304.80001"
   version="1.1"
   id="svg5859"
   inkscape:version="0.92.3 (2405546, 2018-03-11)"
   sodipodi:docname="new-insert-cut5-bottom2.svg">
  <defs
     id="defs5853" />
  <sodipodi:namedview
     id="base"
     pagecolor="#ffffff"
     bordercolor="#666666"
     borderopacity="1.0"
     inkscape:pageopacity="0.0"
     inkscape:pageshadow="2"
     inkscape:zoom="0.24748737"
     inkscape:cx="-626.03628"
     inkscape:cy="232.01732"
     inkscape:document-units="in"
     inkscape:current-layer="layer1"
     showgrid="false"
     units="in"
     inkscape:window-width="1916"
     inkscape:window-height="1036"
     inkscape:window-x="0"
     inkscape:window-y="20"
     inkscape:window-maximized="1" />
  <metadata
     id="metadata5856">
    <rdf:RDF>
      <cc:Work
         rdf:about="">
        <dc:format>image/svg+xml</dc:format>
        <dc:type
           rdf:resource="http://purl.org/dc/dcmitype/StillImage" />
        <dc:title></dc:title>
      </cc:Work>
    </rdf:RDF>
  </metadata>
  <g
     inkscape:label="Layer 1"
     inkscape:groupmode="layer"
     id="layer1"
     transform="translate(0,7.8000168)">
    <path
       inkscape:connector-curvature="0"
       style="fill:#000000;fill-opacity:0.32876713;stroke:none;stroke-width:0;stroke-miterlimit:4;stroke-dasharray:none;stroke-opacity:1"
       d="m 387.20987,114.12825 h -6.35 V 14.433041 a 12.699997,12.699997 0 0 0 -0.0315,-0.89813 12.699997,12.699997 0 0 0 -0.15296,-1.26039 12.699997,12.699997 0 0 0 -0.27802,-1.23868 12.699997,12.699997 0 0 0 -0.40048,-1.20456 12.699997,12.699997 0 0 0 -0.51832,-1.15861 12.699997,12.699997 0 0 0 -0.63201,-1.10123 12.699997,12.699997 0 0 0 -0.73845,-1.03248 12.699997,12.699997 0 0 0 -0.83767,-0.95396 12.699997,12.699997 0 0 0 -0.92914,-0.86505 12.699997,12.699997 0 0 0 -1.01028,-0.76843 12.699997,12.699997 0 0 0 -1.0821,-0.66352 12.699997,12.699997 0 0 0 -1.1431,-0.55243 12.699997,12.699997 0 0 0 -1.19269,-0.4351 12.699997,12.699997 0 0 0 -1.22989,-0.3142 12.699997,12.699997 0 0 0 -1.25524,-0.18965 12.699997,12.699997 0 0 0 -1.26812,-0.0636 H 222.10985 v -6.35 h -50.8 v 6.35 H 25.260351 v 0 a 12.699997,12.699997 0 0 0 -0.89813,0.032 12.699997,12.699997 0 0 0 -1.26039,0.15296 12.699997,12.699997 0 0 0 -1.2387,0.27802 12.699997,12.699997 0 0 0 -1.20457,0.4005 12.699997,12.699997 0 0 0 -1.15859,0.51832 12.699997,12.699997 0 0 0 -1.10122,0.63148 12.699997,12.699997 0 0 0 -1.03301,0.73845 12.699997,12.699997 0 0 0 -0.95343,0.8382 12.699997,12.699997 0 0 0 -0.86558,0.92864 12.699997,12.699997 0 0 0 -0.76793,1.01079 12.699997,12.699997 0 0 0 -0.66352,1.08209 12.699997,12.699997 0 0 0 -0.55242,1.14308 12.699997,12.699997 0 0 0 -0.43511,1.19269 12.699997,12.699997 0 0 0 -0.31419,1.22991 12.699997,12.699997 0 0 0 -0.18966,1.25521 12.699997,12.699997 0 0 0 -0.0636,1.26762 V 114.12819 H 6.2103013 V 164.9282 H 12.560301 V 284.30799 H 145.9103 v -12.7 h 101.60006 v 12.7 H 380.86037 V 164.92826 h 6.35 z"
       id="path2913" />
  </g>
</svg>
