<?xml version="1.0" encoding="UTF-8" standalone="no"?>
<!-- Created with Inkscape (http://www.inkscape.org/) -->

<svg
   xmlns:dc="http://purl.org/dc/elements/1.1/"
   xmlns:cc="http://creativecommons.org/ns#"
   xmlns:rdf="http://www.w3.org/1999/02/22-rdf-syntax-ns#"
   xmlns:svg="http://www.w3.org/2000/svg"
   xmlns="http://www.w3.org/2000/svg"
   xmlns:sodipodi="http://sodipodi.sourceforge.net/DTD/sodipodi-0.dtd"
   xmlns:inkscape="http://www.inkscape.org/namespaces/inkscape"
   width="12in"
   height="12in"
   viewBox="0 0 304.80001 304.80001"
   version="1.1"
   id="svg5859"
   inkscape:version="0.92.3 (2405546, 2018-03-11)"
   sodipodi:docname="new-insert-cut1-top-bottom-ends-spacers.svg">
  <defs
     id="defs5853" />
  <sodipodi:namedview
     id="base"
     pagecolor="#ffffff"
     bordercolor="#666666"
     borderopacity="1.0"
     inkscape:pageopacity="0.0"
     inkscape:pageshadow="2"
     inkscape:zoom="0.48397531"
     inkscape:cx="285.66629"
     inkscape:cy="325.02303"
     inkscape:document-units="in"
     inkscape:current-layer="layer1"
     showgrid="false"
     units="in"
     inkscape:window-width="1916"
     inkscape:window-height="1036"
     inkscape:window-x="0"
     inkscape:window-y="20"
     inkscape:window-maximized="1"
     inkscape:snap-global="false"
     showguides="true"
     inkscape:guide-bbox="true">
    <sodipodi:guide
       position="304.80001,373.38769"
       orientation="1,0"
       id="guide3099"
       inkscape:locked="false"
       inkscape:label=""
       inkscape:color="rgb(0,0,255)" />
  </sodipodi:namedview>
  <metadata
     id="metadata5856">
    <rdf:RDF>
      <cc:Work
         rdf:about="">
        <dc:format>image/svg+xml</dc:format>
        <dc:type
           rdf:resource="http://purl.org/dc/dcmitype/StillImage" />
        <dc:title></dc:title>
      </cc:Work>
    </rdf:RDF>
  </metadata>
  <g
     inkscape:label="Layer 1"
     inkscape:groupmode="layer"
     id="layer1"
     transform="translate(0,7.8000168)">
    <path
       style="fill:#000000;fill-opacity:0.31868137;stroke:none;stroke-width:0;stroke-miterlimit:4;stroke-dasharray:none;stroke-opacity:1"
       d="M 11.678399,-5.7745974 V 25.975418 H 2.1533994 v 44.45153 5.29e-4 a 12.7,12.7 0 0 0 0.032,0.898128 12.7,12.7 0 0 0 0.15296,1.260401 12.7,12.7 0 0 0 0.27802,1.238671 12.7,12.7 0 0 0 0.3999698,1.204569 12.7,12.7 0 0 0 0.51883,1.15911 12.7,12.7 0 0 0 0.6315,1.10072 12.7,12.7 0 0 0 0.73846,1.03301 12.7,12.7 0 0 0 0.83767,0.953431 12.7,12.7 0 0 0 0.92913,0.865579 12.7,12.7 0 0 0 1.01029,0.767901 12.7,12.7 0 0 0 1.08262,0.66353 12.7,12.7 0 0 0 1.14308,0.552421 12.7,12.7 0 0 0 1.1921598,0.43511 12.7,12.7 0 0 0 1.23042,0.31419 12.7,12.7 0 0 0 1.25471,0.189648 12.7,12.7 0 0 0 1.26761,0.0636 H 120.89856 v -6.35 h 50.8 v 6.35 h 119.37982 v -19.05103 h -12.7 V 13.276452 h 12.7 V -5.7745774 Z"
       id="path15809"
       inkscape:connector-curvature="0" />
    <path
       style="fill:#000000;fill-opacity:0.44505496;stroke:none;stroke-width:0.0254;stroke-miterlimit:4;stroke-dasharray:none;stroke-dashoffset:0;stroke-opacity:1"
       d="m 14.323785,84.959 v 19.05103 H 1.6237851 v 50.80002 H 14.323785 v 19.05103 H 133.70357 v -6.35 h 50.8 v 6.35 h 106.04522 a 12.7,12.7 0 0 0 0.89813,-0.032 12.7,12.7 0 0 0 1.26039,-0.15296 12.7,12.7 0 0 0 1.23868,-0.27802 12.7,12.7 0 0 0 1.20459,-0.4 12.7,12.7 0 0 0 1.15909,-0.51882 12.7,12.7 0 0 0 1.10072,-0.63148 12.7,12.7 0 0 0 1.03301,-0.73845 12.7,12.7 0 0 0 0.95343,-0.83767 12.7,12.7 0 0 0 0.86558,-0.92917 12.7,12.7 0 0 0 0.7679,-1.01025 12.7,12.7 0 0 0 0.66352,-1.08263 12.7,12.7 0 0 0 0.55243,-1.14308 12.7,12.7 0 0 0 0.43508,-1.19218 12.7,12.7 0 0 0 0.31422,-1.23042 12.7,12.7 0 0 0 0.18965,-1.25521 12.7,12.7 0 0 0 0.0641,-1.26762 v -44.45206 h -9.5255 V 84.95904 Z"
       id="path2886"
       inkscape:connector-curvature="0" />
    <rect
       style="fill:#000000;fill-opacity:0.32876713;stroke:none;stroke-width:0.02539366;stroke-miterlimit:4;stroke-dasharray:none;stroke-dashoffset:0;stroke-opacity:1"
       id="rect2848"
       width="101.60001"
       height="139.69998"
       x="-279.46405"
       y="5.5929027"
       transform="rotate(-90)" />
    <rect
       style="fill:#000000;fill-opacity:0.44505496;stroke:none;stroke-width:0.16500413;stroke-miterlimit:4;stroke-dasharray:1.32003331, 1.32003331;stroke-dashoffset:0;stroke-opacity:1"
       id="rect2813"
       width="63.499996"
       height="50.800007"
       x="148.7527"
       y="177.64682" />
    <rect
       y="229.97459"
       x="148.56117"
       height="50.800007"
       width="63.499996"
       id="rect7050"
       style="fill:#000000;fill-opacity:0.44505496;stroke:none;stroke-width:0.16500413;stroke-miterlimit:4;stroke-dasharray:1.32003331, 1.32003331;stroke-dashoffset:0;stroke-opacity:1" />
  </g>
</svg>
