<?xml version="1.0" encoding="UTF-8" standalone="no"?>
<!-- Created with Inkscape (http://www.inkscape.org/) -->

<svg
   width="15.2in"
   height="5.9000001in"
   viewBox="0 0 386.08 149.86001"
   version="1.1"
   id="svg2038"
   inkscape:version="1.1.2 (0a00cf5339, 2022-02-04)"
   sodipodi:docname="new-insert-take2-side2-power.svg"
   xmlns:inkscape="http://www.inkscape.org/namespaces/inkscape"
   xmlns:sodipodi="http://sodipodi.sourceforge.net/DTD/sodipodi-0.dtd"
   xmlns="http://www.w3.org/2000/svg"
   xmlns:svg="http://www.w3.org/2000/svg"
   xmlns:rdf="http://www.w3.org/1999/02/22-rdf-syntax-ns#"
   xmlns:cc="http://creativecommons.org/ns#"
   xmlns:dc="http://purl.org/dc/elements/1.1/">
  <defs
     id="defs2032" />
  <sodipodi:namedview
     id="base"
     pagecolor="#ffffff"
     bordercolor="#666666"
     borderopacity="1.0"
     inkscape:pageopacity="0.0"
     inkscape:pageshadow="2"
     inkscape:zoom="0.7"
     inkscape:cx="1132.8571"
     inkscape:cy="665"
     inkscape:document-units="in"
     inkscape:current-layer="layer1"
     showgrid="false"
     units="in"
     inkscape:window-width="1551"
     inkscape:window-height="968"
     inkscape:window-x="26"
     inkscape:window-y="23"
     inkscape:window-maximized="0"
     showguides="true"
     inkscape:guide-bbox="true"
     inkscape:snap-bbox="true"
     inkscape:snap-bbox-midpoints="true"
     inkscape:pagecheckerboard="0">
    <sodipodi:guide
       position="313.75399,20.675607"
       orientation="0,1"
       id="guide3865"
       inkscape:label=""
       inkscape:locked="false"
       inkscape:color="rgb(0,0,255)" />
    <sodipodi:guide
       position="313.75399,20.675607"
       orientation="1,0"
       id="guide3869" />
  </sodipodi:namedview>
  <metadata
     id="metadata2035">
    <rdf:RDF>
      <cc:Work
         rdf:about="">
        <dc:format>image/svg+xml</dc:format>
        <dc:type
           rdf:resource="http://purl.org/dc/dcmitype/StillImage" />
      </cc:Work>
    </rdf:RDF>
  </metadata>
  <g
     inkscape:label="Layer 1"
     inkscape:groupmode="layer"
     id="layer1"
     transform="translate(0,-185.23999)">
    <path
       style="fill:none;fill-opacity:0.225275;stroke:#000000;stroke-width:0.0254;stroke-miterlimit:4;stroke-dasharray:none;stroke-opacity:1"
       d="m 21.721155,187.31221 v 50.81603 c -6.344417,-0.005 -12.6716682,0.007 -19.008659,0.009 -0.078604,19.01308 -0.026497,76.26031 -0.041341,95.33715 114.336435,-0.0188 228.068405,-0.0614 342.364335,0 h 25.8685 c -0.046,-15.03893 0.12393,-67.1824 0.0672,-82.41934 0.0299,-4.34946 -0.0666,-8.57251 -0.0408,-12.91781 -6.33849,-8.2e-4 -12.66407,-0.0146 -19.00918,-0.009 v -50.81603 h -127 v 50.80001 h -28.575 v -47.625 h -19.05 v 47.625 h -28.575 V 187.31221 H 21.721205 Z"
       id="path6642"
       inkscape:connector-curvature="0"
       sodipodi:nodetypes="cccccccccccccccccccc" />
    <circle
       id="circle3083"
       style="fill:none;fill-opacity:1;stroke:#000000;stroke-width:0.0254;stroke-miterlimit:4;stroke-dasharray:none;stroke-dashoffset:0;stroke-opacity:1"
       cx="282.56207"
       cy="85.221489"
       transform="matrix(0,1,1,0,0,0)"
       r="4.43051" />
    <circle
       r="4.43051"
       transform="matrix(0,1,1,0,0,0)"
       cy="288.42148"
       cx="282.56207"
       style="fill:none;fill-opacity:1;stroke:#000000;stroke-width:0.0254;stroke-miterlimit:4;stroke-dasharray:none;stroke-dashoffset:0;stroke-opacity:1"
       id="circle3102" />
    <path
       style="fill:none;fill-opacity:0.08;stroke:#000000;stroke-width:0.0254;stroke-miterlimit:4;stroke-dasharray:none;stroke-dashoffset:0;stroke-opacity:1"
       d="m 100.46158,291.81802 v 28.95637 H 40.771156 v -28.95637 z"
       id="path3810" />
    <path
       style="fill:none;fill-opacity:0.08;stroke:#000000;stroke-width:0.0254;stroke-miterlimit:4;stroke-dasharray:none;stroke-dashoffset:0;stroke-opacity:1"
       d="m 310.83297,303.63228 h 5.84202 v 2.88045 a 9.5821503,9.5821503 0 0 1 6.6611,9.12192 9.5821503,9.5821503 0 0 1 -9.58236,9.58185 9.5821503,9.5821503 0 0 1 -9.58184,-9.58185 9.5821503,9.5821503 0 0 1 6.66108,-9.11417 z"
       id="rect1945" />
  </g>
</svg>
