<?xml version="1.0" encoding="UTF-8" standalone="no"?>
<!-- Created with Inkscape (http://www.inkscape.org/) -->

<svg
   xmlns:dc="http://purl.org/dc/elements/1.1/"
   xmlns:cc="http://creativecommons.org/ns#"
   xmlns:rdf="http://www.w3.org/1999/02/22-rdf-syntax-ns#"
   xmlns:svg="http://www.w3.org/2000/svg"
   xmlns="http://www.w3.org/2000/svg"
   xmlns:sodipodi="http://sodipodi.sourceforge.net/DTD/sodipodi-0.dtd"
   xmlns:inkscape="http://www.inkscape.org/namespaces/inkscape"
   width="15.2in"
   height="4.4000001in"
   viewBox="0 0 386.08 111.76001"
   version="1.1"
   id="svg2038"
   inkscape:version="0.92.3 (2405546, 2018-03-11)"
   sodipodi:docname="new-insert-take2-side2.svg">
  <defs
     id="defs2032" />
  <sodipodi:namedview
     id="base"
     pagecolor="#ffffff"
     bordercolor="#666666"
     borderopacity="1.0"
     inkscape:pageopacity="0.0"
     inkscape:pageshadow="2"
     inkscape:zoom="0.98994949"
     inkscape:cx="476.64991"
     inkscape:cy="150.13075"
     inkscape:document-units="in"
     inkscape:current-layer="layer1"
     showgrid="false"
     units="in"
     inkscape:window-width="1916"
     inkscape:window-height="1036"
     inkscape:window-x="0"
     inkscape:window-y="20"
     inkscape:window-maximized="1" />
  <metadata
     id="metadata2035">
    <rdf:RDF>
      <cc:Work
         rdf:about="">
        <dc:format>image/svg+xml</dc:format>
        <dc:type
           rdf:resource="http://purl.org/dc/dcmitype/StillImage" />
        <dc:title />
      </cc:Work>
    </rdf:RDF>
  </metadata>
  <g
     inkscape:label="Layer 1"
     inkscape:groupmode="layer"
     id="layer1"
     transform="translate(0,-185.23999)">
    <path
       style="fill:none;fill-opacity:0.22527472;stroke:#000000;stroke-width:0.09599999;stroke-miterlimit:4;stroke-dasharray:none;stroke-opacity:1"
       d="M 82.095703 7.8320312 L 82.095703 199.89258 L 34.158203 199.89258 L 34.158203 223.83203 L 10.095703 223.83203 L 10.095703 350.33008 L 10.095703 416.24219 L 610.0957 416.24219 L 610.0957 415.83398 L 802.0957 415.83398 L 802.0957 416.24219 L 1401.8418 416.24219 L 1401.8418 350.31055 A 47.999995 48.000448 0 0 0 1401.3555 350.01172 L 1401.3555 349.85156 A 47.999991 47.999991 0 0 1 1402.0957 350.30469 L 1402.0957 223.83203 L 1378.0352 223.83203 L 1378.0352 199.89258 L 1330.0957 199.89258 L 1330.0957 7.8320312 L 850.0957 7.8320312 L 850.0957 199.83203 L 742.0957 199.83203 L 742.0957 19.832031 L 670.0957 19.832031 L 670.0957 199.83203 L 562.0957 199.83203 L 562.0957 7.8320312 L 82.095703 7.8320312 z "
       transform="matrix(0.26458334,0,0,0.26458334,0,185.23999)"
       id="path6642" />
    <rect
       y="180.47148"
       x="-295.26233"
       height="25.4"
       width="50.799999"
       id="rect2912"
       style="fill:none;fill-opacity:0.44505496;stroke:#000000;stroke-width:0.50800002;stroke-miterlimit:4;stroke-dasharray:none;stroke-dashoffset:0;stroke-opacity:1"
       transform="rotate(-90)" />
    <ellipse
       cy="257.16232"
       cx="193.17148"
       style="fill:none;fill-opacity:1;stroke:#000000;stroke-width:0.0254;stroke-miterlimit:4;stroke-dasharray:none;stroke-dashoffset:0;stroke-opacity:1"
       id="ellipse2914"
       rx="0.74150097"
       ry="0.74166775" />
    <ellipse
       cy="282.56232"
       cx="193.17148"
       style="fill:none;fill-opacity:1;stroke:#000000;stroke-width:0.0254;stroke-miterlimit:4;stroke-dasharray:none;stroke-dashoffset:0;stroke-opacity:1"
       id="ellipse2916"
       rx="0.74150097"
       ry="0.74166775" />
    <circle
       id="circle3083"
       style="fill:none;fill-opacity:1;stroke:#000000;stroke-width:0.0254;stroke-miterlimit:4;stroke-dasharray:none;stroke-dashoffset:0;stroke-opacity:1"
       cx="244.46207"
       cy="85.221489"
       transform="matrix(0,1,1,0,0,0)"
       r="3.8831985" />
    <circle
       r="3.8831985"
       transform="matrix(0,1,1,0,0,0)"
       cy="288.42148"
       cx="244.46207"
       style="fill:none;fill-opacity:1;stroke:#000000;stroke-width:0.0254;stroke-miterlimit:4;stroke-dasharray:none;stroke-dashoffset:0;stroke-opacity:1"
       id="circle3102" />
    <ellipse
       ry="6.3378015"
       rx="6.3378019"
       cy="276.21231"
       cx="218.57149"
       id="ellipse3146"
       style="fill:none;fill-opacity:0.32876713;stroke:#000000;stroke-width:0.0254;stroke-miterlimit:4;stroke-dasharray:none;stroke-dashoffset:0;stroke-opacity:1" />
  </g>
</svg>
