<?xml version="1.0" encoding="UTF-8" standalone="no"?>
<!-- Created with Inkscape (http://www.inkscape.org/) -->

<svg
   xmlns:dc="http://purl.org/dc/elements/1.1/"
   xmlns:cc="http://creativecommons.org/ns#"
   xmlns:rdf="http://www.w3.org/1999/02/22-rdf-syntax-ns#"
   xmlns:svg="http://www.w3.org/2000/svg"
   xmlns="http://www.w3.org/2000/svg"
   xmlns:sodipodi="http://sodipodi.sourceforge.net/DTD/sodipodi-0.dtd"
   xmlns:inkscape="http://www.inkscape.org/namespaces/inkscape"
   width="5284.1875"
   height="2787.7517"
   id="svg2"
   version="1.1"
   inkscape:version="0.48.4 r9939"
   sodipodi:docname="panel_box.svg">
  <defs
     id="defs4" />
  <sodipodi:namedview
     id="base"
     pagecolor="#ffffff"
     bordercolor="#666666"
     borderopacity="1.0"
     inkscape:pageopacity="0.0"
     inkscape:pageshadow="2"
     inkscape:zoom="0.24748738"
     inkscape:cx="2493.7488"
     inkscape:cy="1086.1129"
     inkscape:document-units="in"
     inkscape:current-layer="layer1"
     showgrid="false"
     units="in"
     inkscape:snap-bbox="true"
     inkscape:bbox-nodes="true"
     inkscape:object-nodes="true"
     showguides="false"
     inkscape:guide-bbox="true"
     inkscape:snap-global="true"
     inkscape:window-width="1918"
     inkscape:window-height="1059"
     inkscape:window-x="1920"
     inkscape:window-y="19"
     inkscape:window-maximized="1"
     inkscape:bbox-paths="false"
     inkscape:snap-bbox-midpoints="true"
     inkscape:snap-object-midpoints="true"
     inkscape:snap-bbox-edge-midpoints="false"
     fit-margin-top="1"
     fit-margin-left="1"
     fit-margin-right="1"
     fit-margin-bottom="1"
     inkscape:snap-nodes="true"
     inkscape:snap-center="true">
    <inkscape:grid
       type="xygrid"
       id="grid2989"
       empspacing="2"
       visible="true"
       enabled="true"
       snapvisiblegridlinesonly="true"
       units="in"
       spacingx="1in"
       spacingy="0.5in"
       empcolor="#ff0000"
       empopacity="0.25098039"
       originx="0in"
       originy="0in" />
    <sodipodi:guide
       orientation="-0.5,0.8660254"
       position="2002.6551,1637.8951"
       id="guide2999" />
    <sodipodi:guide
       orientation="1,0"
       position="2002.5851,1588.3325"
       id="guide3001" />
    <sodipodi:guide
       orientation="-0.5,0.8660254"
       position="2178.8751,1376.077"
       id="guide3005" />
    <sodipodi:guide
       orientation="0,1"
       position="1917.0894,1345.2922"
       id="guide3007" />
    <sodipodi:guide
       orientation="1,0"
       position="1931.3751,1333.8751"
       id="guide3804" />
    <sodipodi:guide
       orientation="0,1"
       position="3281.3751,2350.4821"
       id="guide3887" />
    <sodipodi:guide
       orientation="1,0"
       position="1953.8751,1333.8751"
       id="guide3038" />
    <sodipodi:guide
       orientation="1,0"
       position="2403.8751,1333.8751"
       id="guide3058" />
    <sodipodi:guide
       orientation="1,0"
       position="3348.8751,1333.8751"
       id="guide3060" />
    <sodipodi:guide
       orientation="0,1"
       position="2898.8135,-16.12475"
       id="guide3062" />
    <sodipodi:guide
       orientation="0,1"
       position="2898.8752,-223.18705"
       id="guide3064" />
    <sodipodi:guide
       orientation="0,1"
       position="2829.4007,-1925.1748"
       id="guide3068" />
    <sodipodi:guide
       orientation="0,1"
       position="2899.0122,-1778.8623"
       id="guide3070" />
    <sodipodi:guide
       orientation="1,0"
       position="3843.8144,822.61159"
       id="guide3072" />
    <sodipodi:guide
       orientation="0,1"
       position="1931.3751,-1456.1249"
       id="guide3074" />
    <sodipodi:guide
       orientation="0,1"
       position="1931.3751,231.37505"
       id="guide3078" />
    <sodipodi:guide
       orientation="0,1"
       position="1931.3751,726.37505"
       id="guide3080" />
    <sodipodi:guide
       orientation="0,1"
       position="1931.3751,-1147.8749"
       id="guide3082" />
    <sodipodi:guide
       orientation="0,1"
       position="1931.3751,-531.37495"
       id="guide3084" />
    <sodipodi:guide
       orientation="1,0"
       position="2927.3151,1333.8751"
       id="guide3086" />
    <sodipodi:guide
       orientation="1,0"
       position="2310.8151,1333.8751"
       id="guide3088" />
    <sodipodi:guide
       orientation="0,1"
       position="1931.3751,1597.1251"
       id="guide3090" />
    <sodipodi:guide
       orientation="0,1"
       position="1931.3751,2092.1251"
       id="guide3092" />
    <sodipodi:guide
       orientation="1,0"
       position="3281.2488,1349.4916"
       id="guide3094" />
    <sodipodi:guide
       orientation="0,1"
       position="1931.3751,1495.8751"
       id="guide3096" />
    <sodipodi:guide
       orientation="1,0"
       position="5171.3439,947.28299"
       id="guide3160" />
    <sodipodi:guide
       orientation="0,1"
       position="5171.3439,330.78289"
       id="guide3166" />
    <sodipodi:guide
       orientation="1,0"
       position="4687.4688,1841.5173"
       id="guide3827" />
  </sodipodi:namedview>
  <metadata
     id="metadata7">
    <rdf:RDF>
      <cc:Work
         rdf:about="">
        <dc:format>image/svg+xml</dc:format>
        <dc:type
           rdf:resource="http://purl.org/dc/dcmitype/StillImage" />
        <dc:title />
      </cc:Work>
    </rdf:RDF>
  </metadata>
  <g
     inkscape:groupmode="layer"
     id="layer2"
     inkscape:label="visual"
     style="display:none"
     transform="translate(1931.3751,373.87657)">
    <rect
       transform="matrix(0.8660254,-0.5,0.5,0.8660254,0,0)"
       y="708.08362"
       x="-294.99179"
       height="315"
       width="1260"
       id="rect2987"
       style="fill:#0000ff;fill-opacity:1;stroke:none" />
  </g>
  <g
     inkscape:label="cuts"
     inkscape:groupmode="layer"
     id="layer1"
     transform="translate(1931.3751,401.51682)">
    <path
       style="fill:none;stroke:#000000;stroke-width:0.09;stroke-miterlimit:4;stroke-opacity:1;stroke-dasharray:none;stroke-dashoffset:0"
       d="M 1035.1875 1149.875 L 112.65625 1149.875 L 112.65625 1228.7188 L 90.0625 1228.7188 L 90.0625 1363.5 L 112.65625 1363.5 L 112.65625 1442.375 L 472.5625 1442.375 L 472.5625 1397.4062 L 652.375 1397.4062 L 652.375 1442.375 L 1035.1875 1442.375 L 1012.6875 1431.125 L 1102.6875 1386.125 L 1012.6875 1341.125 L 1102.6875 1296.125 L 1012.6875 1251.125 L 1102.6875 1206.125 L 1012.6875 1161.125 L 1035.1875 1149.875 z "
       id="path3096"
       transform="translate(-1931.3751,-401.51682)" />
    <path
       style="fill:none;stroke:#000000;stroke-width:0.09;stroke-miterlimit:4;stroke-opacity:1;stroke-dasharray:none;stroke-dashoffset:0"
       d="m -948.71553,739.26681 -22.5,11.25 90,45 -90,45 90,45 -90,45 90,45 -90,44.99999 22.5,11.25 382.375,0 0,-44.96879 179.8125,0 0,44.96879 405.281199,0 0,-78.87499 22.625,0 0,-134.7812 -22.625,0 0,-78.8438 -967.468699,0 z"
       id="rect3832"
       inkscape:connector-curvature="0" />
    <path
       style="fill:none;stroke:#000000;stroke-width:0.09;stroke-miterlimit:4;stroke-opacity:1;stroke-dasharray:none;stroke-dashoffset:0"
       d="m 1349.875,63.59375 -146.6562,84.6875 -11.1876,-19.375 -1120.74995,647.0625 0,78.90625 22.3125,0 0,134.84375 -22.3125,0 0,78.78125 240.65619,0.125 0,-44.9063 179.9376,0 0,44.9063 436.5624,0 0,-44.9063 179.93766,0 0,44.9063 241.4999,-0.125 0,-161.875 -22.5,0 0,-179.75 22.5,0 0,-315.25 -22.5,0 0,-179.75 22.5,0 z"
       transform="translate(0,-27.64025)"
       id="rect3864"
       inkscape:connector-curvature="0"
       sodipodi:nodetypes="ccccccccccccccccccccccccccc" />
    <g
       transform="translate(155.71427,319.2266)"
       id="g6954"
       style="stroke-width:0.09;stroke-miterlimit:4;stroke-dasharray:none">
      <rect
         transform="matrix(0.8660254,-0.5,0.5,0.8660254,0,0)"
         style="fill:none;stroke:#000000;stroke-width:0.09;stroke-linecap:butt;stroke-linejoin:miter;stroke-miterlimit:4;stroke-opacity:1;stroke-dasharray:none;stroke-dashoffset:0"
         id="rect3870"
         width="12.6"
         height="12.6"
         x="-212.6494"
         y="363.89578" />
      <rect
         transform="matrix(0.8660254,-0.5,0.5,0.8660254,0,0)"
         y="453.89578"
         x="-212.6494"
         height="12.6"
         width="12.6"
         id="rect3872"
         style="fill:none;stroke:#000000;stroke-width:0.09;stroke-linecap:butt;stroke-linejoin:miter;stroke-miterlimit:4;stroke-opacity:1;stroke-dasharray:none;stroke-dashoffset:0" />
      <rect
         transform="matrix(0.8660254,-0.5,0.5,0.8660254,0,0)"
         y="363.89578"
         x="310.25058"
         height="12.6"
         width="12.6"
         id="rect3874"
         style="fill:none;stroke:#000000;stroke-width:0.09;stroke-linecap:butt;stroke-linejoin:miter;stroke-miterlimit:4;stroke-opacity:1;stroke-dasharray:none;stroke-dashoffset:0" />
      <rect
         transform="matrix(0.8660254,-0.5,0.5,0.8660254,0,0)"
         style="fill:none;stroke:#000000;stroke-width:0.09;stroke-linecap:butt;stroke-linejoin:miter;stroke-miterlimit:4;stroke-opacity:1;stroke-dasharray:none;stroke-dashoffset:0"
         id="rect3876"
         width="12.6"
         height="12.6"
         x="310.25058"
         y="453.89578" />
      <rect
         transform="matrix(0.8660254,-0.5,0.5,0.8660254,0,0)"
         style="fill:none;stroke:#000000;stroke-width:0.09;stroke-linecap:butt;stroke-linejoin:miter;stroke-miterlimit:4;stroke-opacity:1;stroke-dasharray:none;stroke-dashoffset:0"
         id="rect3878"
         width="12.6"
         height="12.6"
         x="421.85062"
         y="363.89578" />
      <rect
         transform="matrix(0.8660254,-0.5,0.5,0.8660254,0,0)"
         y="453.89578"
         x="421.85062"
         height="12.6"
         width="12.6"
         id="rect3880"
         style="fill:none;stroke:#000000;stroke-width:0.09;stroke-linecap:butt;stroke-linejoin:miter;stroke-miterlimit:4;stroke-opacity:1;stroke-dasharray:none;stroke-dashoffset:0" />
      <rect
         transform="matrix(0.8660254,-0.5,0.5,0.8660254,0,0)"
         y="363.89578"
         x="944.75073"
         height="12.6"
         width="12.6"
         id="rect3882"
         style="fill:none;stroke:#000000;stroke-width:0.09;stroke-linecap:butt;stroke-linejoin:miter;stroke-miterlimit:4;stroke-opacity:1;stroke-dasharray:none;stroke-dashoffset:0" />
      <rect
         transform="matrix(0.8660254,-0.5,0.5,0.8660254,0,0)"
         style="fill:none;stroke:#000000;stroke-width:0.09;stroke-linecap:butt;stroke-linejoin:miter;stroke-miterlimit:4;stroke-opacity:1;stroke-dasharray:none;stroke-dashoffset:0"
         id="rect3884"
         width="12.6"
         height="12.6"
         x="944.75073"
         y="453.89578" />
    </g>
    <path
       style="fill:none;stroke:#000000;stroke-width:0.0939058;stroke-miterlimit:4;stroke-opacity:1;stroke-dasharray:none;stroke-dashoffset:0"
       d="M 1204.0625 1623.2188 L 202.5625 1623.2188 L 202.5625 1792.2812 L 1204.0625 1792.2812 L 1125 1752.75 L 1215 1707.75 L 1125 1662.75 L 1204.0625 1623.2188 z "
       id="path3102"
       transform="translate(-1931.3751,-401.51682)" />
    <path
       style="fill:none;stroke:#000000;stroke-width:0.09;stroke-miterlimit:4;stroke-opacity:1;stroke-dasharray:none;stroke-dashoffset:0"
       d="M 1204.0625 1623.2188 L 1125 1662.75 L 1215 1707.75 L 1125 1752.75 L 1204.0625 1792.2812 L 2137.4375 1792.2812 L 2137.4375 1623.2188 L 1204.0625 1623.2188 z "
       id="rect3796"
       transform="translate(-1931.3751,-401.51682)" />
    <path
       style="fill:none;stroke:#000000;stroke-width:0.08894449;stroke-miterlimit:4;stroke-opacity:1;stroke-dasharray:none;stroke-dashoffset:0"
       d="M 4183.5312 450.09375 L 3281.2812 450.09375 L 3281.25 605.75 L 3258.7188 605.75 L 3258.7188 785.6875 L 3281.25 785.6875 L 3281.25 1100.75 L 3258.7188 1100.75 L 3258.7188 1280.6875 L 3281.25 1280.6875 L 3281.25 1442.375 L 3641.3438 1442.375 L 3641.3438 1397.4062 L 3821.1562 1397.4062 L 3821.1562 1442.375 L 4183.4688 1442.375 L 4181.2188 1441.25 L 4271.2188 1396.25 L 4181.2188 1351.25 L 4271.2188 1306.25 L 4181.2188 1261.25 L 4271.2188 1216.25 L 4181.2188 1171.25 L 4271.2188 1126.25 L 4181.2188 1081.25 L 4271.2188 1036.25 L 4181.2188 991.25 L 4271.2188 946.25 L 4181.2188 901.25 L 4271.2188 856.25 L 4181.2188 811.25 L 4271.2188 766.25 L 4181.2188 721.25 L 4271.2188 676.25 L 4181.2188 631.25 L 4271.2188 586.25 L 4181.2188 541.25 L 4271.2188 496.25 L 4181.2188 451.25 L 4183.5312 450.09375 z "
       id="path3110"
       transform="translate(-1931.3751,-401.51682)" />
    <path
       style="fill:none;stroke:#000000;stroke-width:0.08894449;stroke-miterlimit:4;stroke-opacity:1;stroke-dasharray:none;stroke-dashoffset:0"
       d="M 4183.5312 450.09375 L 4181.2188 451.25 L 4271.2188 496.25 L 4181.2188 541.25 L 4271.2188 586.25 L 4181.2188 631.25 L 4271.2188 676.25 L 4181.2188 721.25 L 4271.2188 766.25 L 4181.2188 811.25 L 4271.2188 856.25 L 4181.2188 901.25 L 4271.2188 946.25 L 4181.2188 991.25 L 4271.2188 1036.25 L 4181.2188 1081.25 L 4271.2188 1126.25 L 4181.2188 1171.25 L 4271.2188 1216.25 L 4181.2188 1261.25 L 4271.2188 1306.25 L 4181.2188 1351.25 L 4271.2188 1396.25 L 4181.2188 1441.25 L 4183.4688 1442.375 L 4586.3438 1442.375 L 4586.3438 1397.4062 L 4766.1562 1397.4062 L 4766.1562 1442.375 L 5171.125 1442.375 L 5171.125 1280.6875 L 5193.7188 1280.6875 L 5193.7188 1100.75 L 5171.125 1100.75 L 5171.125 785.6875 L 5193.7188 785.6875 L 5193.7188 605.75 L 5171.125 605.75 L 5171.1562 450.09375 L 4183.5312 450.09375 z "
       id="rect3802"
       transform="translate(-1931.3751,-401.51682)" />
    <path
       style="fill:none;stroke:#000000;stroke-width:0.08974109;stroke-miterlimit:4;stroke-opacity:1;stroke-dasharray:none;stroke-dashoffset:0"
       d="M 4244.5312 1442.375 L 3821.1562 1442.375 L 3821.1562 1419.875 L 3641.5312 1419.875 L 3641.5312 1442.375 L 3281.3438 1442.375 L 3281.3438 1660.5312 L 3258.8125 1660.5312 L 3258.8125 1840.4688 L 3281.3438 1840.4688 L 3281.3438 2277.0312 L 3258.8125 2277.0312 L 3258.8125 2456.9688 L 3281.3438 2456.9688 L 3281.3438 2675.25 L 3641.5312 2675.25 L 3641.5312 2697.6875 L 3821.1562 2697.6875 L 3821.1562 2675.25 L 4245.1562 2675.25 L 4181.7188 2643.5312 L 4271.7188 2598.5312 L 4181.4688 2553.7812 L 4271.2188 2509.0312 L 4181.2188 2464.0312 L 4271.2188 2419.0312 L 4181.2188 2374.0312 L 4271.2188 2329.0312 L 4181.2188 2284.0312 L 4271.2188 2239.0312 L 4181.2188 2194.0312 L 4271.2188 2149.0312 L 4181.2188 2104.0312 L 4271.2188 2059.0312 L 4181.2188 2014.0312 L 4271.2188 1969.0312 L 4181.2188 1924.0312 L 4271.2188 1879.0312 L 4181.2188 1834.0312 L 4271.2188 1789.0312 L 4181.2188 1744.0312 L 4271.2188 1699.0312 L 4181.2188 1654.0312 L 4271.2188 1609.0312 L 4181.2188 1564.0312 L 4271.2188 1519.0312 L 4181.2188 1474.0312 L 4244.5312 1442.375 z "
       id="path3119"
       transform="translate(-1931.3751,-401.51682)" />
    <path
       style="fill:none;stroke:#000000;stroke-width:0.08974109;stroke-miterlimit:4;stroke-opacity:1;stroke-dasharray:none;stroke-dashoffset:0"
       d="m 2313.1561,1040.8581 -63.3124,31.6562 90,45 -90,45 90,45 -90,45 90,45 -90,45 90,45 -90,45 90,45 -90,45 90,45 -90,45 90,45 -90,45 90,45 -90,45 90,45 -90,45 90,45 -90,45.0001 90,45 -90,45 90,45 -89.75,44.75 90.25,44.75 -90,44.9998 63.4374,31.7189 341.3751,0 0,22.4375 179.625,0 0,-22.4375 405.1876,0 0,-218.2811 22.7812,0 0,-179.9377 -22.7812,0 0,-436.5624 22.7812,0 0,-179.9376 -22.7812,0 0,-218.1562 -405.1876,0 0,-22.5 -179.625,0 0,22.5 -342.0001,0 z"
       id="rect3810"
       inkscape:connector-curvature="0" />
    <path
       transform="matrix(1.1329989,0,0,1.1329989,-70.774477,1274.3501)"
       d="m 43.689098,28.14192 c 0,9.797976 -7.942828,17.740805 -17.740804,17.740805 -9.797976,0 -17.740805,-7.942829 -17.740805,-17.740805 0,-9.797976 7.942829,-17.740805 17.740805,-17.740805 9.797976,0 17.740804,7.942829 17.740804,17.740805 z"
       sodipodi:ry="17.740805"
       sodipodi:rx="17.740805"
       sodipodi:cy="28.14192"
       sodipodi:cx="25.948294"
       id="path9682"
       style="fill:none;stroke:#000000;stroke-width:4.76611233;stroke-miterlimit:4;stroke-opacity:1;stroke-dasharray:none;display:inline"
       sodipodi:type="arc" />
    <path
       inkscape:connector-curvature="0"
       id="rect2986"
       d="m -50.125089,1295.563 c -3.08879,2.5326 -5.0625,6.3817 -5.0625,10.6875 0,4.2902 1.96175,8.1233 5.03125,10.6563 l 17.5625,0 c 3.0695,-2.533 5.03125,-6.3661 5.03125,-10.6563 0,-4.3058 -1.97371,-8.1549 -5.0625,-10.6875 l -17.5,0 z"
       style="fill:none;stroke:#000000;stroke-width:0.09;stroke-miterlimit:4;stroke-opacity:1;stroke-dasharray:none;display:inline" />
    <text
       sodipodi:linespacing="125%"
       id="text2996"
       y="1282.6008"
       x="-18.875088"
       style="font-size:12px;font-style:normal;font-variant:normal;font-weight:300;font-stretch:normal;text-align:center;line-height:125%;letter-spacing:0px;word-spacing:0px;text-anchor:middle;fill:#000000;fill-opacity:1;stroke:none;font-family:Klavika;-inkscape-font-specification:Klavika Light"
       xml:space="preserve"><tspan
         y="1282.6008"
         x="-18.875088"
         id="tspan2998"
         sodipodi:role="line">GROUND</tspan></text>
    <g
       id="g25341">
      <path
         inkscape:connector-curvature="0"
         id="path8355"
         d="m -1580.1251,1295.563 c -3.0888,2.5326 -5.0625,6.3817 -5.0625,10.6875 0,4.2902 1.9617,8.1233 5.0312,10.6563 l 17.5625,0 c 3.0695,-2.533 5.0313,-6.3661 5.0313,-10.6563 0,-4.3058 -1.9737,-8.1549 -5.0625,-10.6875 l -17.5,0 z"
         style="fill:none;stroke:#000000;stroke-width:0.09;stroke-miterlimit:4;stroke-opacity:1;stroke-dasharray:none;display:inline" />
      <path
         transform="matrix(0.23953158,0,0,0.23953158,-1527.5705,1267.344)"
         d="m 262.85715,162.36218 c 0,38.65994 -31.34007,70 -70,70 -38.65994,0 -70,-31.34006 -70,-70 0,-38.65993 31.34006,-69.999997 70,-69.999997 38.65993,0 70,31.340067 70,69.999997 z"
         sodipodi:ry="70"
         sodipodi:rx="70"
         sodipodi:cy="162.36218"
         sodipodi:cx="192.85715"
         id="path3001"
         style="fill:none;stroke:#000000;stroke-width:0.37573335;stroke-miterlimit:4;stroke-opacity:1;stroke-dasharray:none;stroke-dashoffset:0"
         sodipodi:type="arc" />
      <path
         sodipodi:nodetypes="ccccc"
         inkscape:connector-curvature="0"
         id="path13755-4"
         d="m -1481.8923,1321.2633 0,-30.0568 -88.9656,0 0,30.0568 z"
         style="fill:none;stroke:#000000;stroke-width:1.03442395;stroke-linecap:butt;stroke-linejoin:miter;stroke-miterlimit:4;stroke-opacity:1;stroke-dasharray:4.13769588, 4.13769588;stroke-dashoffset:0" />
    </g>
    <g
       id="g25332">
      <path
         style="fill:none;stroke:#000000;stroke-width:0.09;stroke-miterlimit:4;stroke-opacity:1;stroke-dasharray:none;display:inline"
         d="m -1310.1251,1295.563 c -3.0888,2.5326 -5.0625,6.3817 -5.0625,10.6875 0,4.2902 1.9617,8.1233 5.0312,10.6563 l 17.5625,0 c 3.0695,-2.533 5.0313,-6.3661 5.0313,-10.6563 0,-4.3058 -1.9737,-8.1549 -5.0625,-10.6875 l -17.5,0 z"
         id="path3086"
         inkscape:connector-curvature="0" />
      <path
         sodipodi:type="arc"
         style="fill:none;stroke:#000000;stroke-width:0.37573335;stroke-miterlimit:4;stroke-opacity:1;stroke-dasharray:none;stroke-dashoffset:0"
         id="path12895"
         sodipodi:cx="192.85715"
         sodipodi:cy="162.36218"
         sodipodi:rx="70"
         sodipodi:ry="70"
         d="m 262.85715,162.36218 c 0,38.65994 -31.34007,70 -70,70 -38.65994,0 -70,-31.34006 -70,-70 0,-38.65993 31.34006,-69.999997 70,-69.999997 38.65993,0 70,31.340067 70,69.999997 z"
         transform="matrix(0.23953158,0,0,0.23953158,-1257.5705,1267.344)" />
      <path
         style="fill:none;stroke:#000000;stroke-width:1.03442395;stroke-linecap:butt;stroke-linejoin:miter;stroke-miterlimit:4;stroke-opacity:1;stroke-dasharray:4.13769588, 4.13769588;stroke-dashoffset:0"
         d="m -1211.8923,1321.2633 0,-30.0568 -88.9656,0 0,30.0568 z"
         id="path25276"
         inkscape:connector-curvature="0"
         sodipodi:nodetypes="ccccc" />
    </g>
    <g
       id="g25307">
      <path
         inkscape:connector-curvature="0"
         id="path3098"
         d="m -1040.1251,1295.563 c -3.0888,2.5326 -5.0625,6.3817 -5.0625,10.6875 0,4.2902 1.9617,8.1233 5.0312,10.6563 l 17.5626,0 c 3.0695,-2.533 5.0312,-6.3661 5.0312,-10.6563 0,-4.3058 -1.9737,-8.1549 -5.0625,-10.6875 l -17.5,0 z"
         style="fill:none;stroke:#000000;stroke-width:0.09;stroke-miterlimit:4;stroke-opacity:1;stroke-dasharray:none;display:inline" />
      <path
         transform="matrix(0.23953158,0,0,0.23953158,-987.57048,1267.344)"
         d="m 262.85715,162.36218 c 0,38.65994 -31.34007,70 -70,70 -38.65994,0 -70,-31.34006 -70,-70 0,-38.65993 31.34006,-69.999997 70,-69.999997 38.65993,0 70,31.340067 70,69.999997 z"
         sodipodi:ry="70"
         sodipodi:rx="70"
         sodipodi:cy="162.36218"
         sodipodi:cx="192.85715"
         id="path12897"
         style="fill:none;stroke:#000000;stroke-width:0.37573335;stroke-miterlimit:4;stroke-opacity:1;stroke-dasharray:none;stroke-dashoffset:0"
         sodipodi:type="arc" />
      <path
         sodipodi:nodetypes="ccccc"
         inkscape:connector-curvature="0"
         id="path25278"
         d="m -941.89231,1321.2633 0,-30.0568 -88.96559,0 0,30.0568 z"
         style="fill:none;stroke:#000000;stroke-width:1.03442395;stroke-linecap:butt;stroke-linejoin:miter;stroke-miterlimit:4;stroke-opacity:1;stroke-dasharray:4.13769588, 4.13769588;stroke-dashoffset:0" />
    </g>
    <g
       id="g25312"
       transform="translate(720,-1.1015625e-5)">
      <path
         style="fill:none;stroke:#000000;stroke-width:0.09;stroke-miterlimit:4;stroke-opacity:1;stroke-dasharray:none;display:inline"
         d="m -1040.1251,1295.563 c -3.0888,2.5326 -5.0625,6.3817 -5.0625,10.6875 0,4.2902 1.9617,8.1233 5.0312,10.6563 l 17.5626,0 c 3.0695,-2.533 5.0312,-6.3661 5.0312,-10.6563 0,-4.3058 -1.9737,-8.1549 -5.0625,-10.6875 l -17.5,0 z"
         id="path25314"
         inkscape:connector-curvature="0" />
      <path
         sodipodi:type="arc"
         style="fill:none;stroke:#000000;stroke-width:0.37573335;stroke-miterlimit:4;stroke-opacity:1;stroke-dasharray:none;stroke-dashoffset:0"
         id="path25316"
         sodipodi:cx="192.85715"
         sodipodi:cy="162.36218"
         sodipodi:rx="70"
         sodipodi:ry="70"
         d="m 262.85715,162.36218 c 0,38.65994 -31.34007,70 -70,70 -38.65994,0 -70,-31.34006 -70,-70 0,-38.65993 31.34006,-69.999997 70,-69.999997 38.65993,0 70,31.340067 70,69.999997 z"
         transform="matrix(0.23953158,0,0,0.23953158,-987.57048,1267.344)" />
      <path
         style="fill:none;stroke:#000000;stroke-width:1.03442395;stroke-linecap:butt;stroke-linejoin:miter;stroke-miterlimit:4;stroke-opacity:1;stroke-dasharray:4.13769588, 4.13769588;stroke-dashoffset:0"
         d="m -941.89231,1321.2633 0,-30.0568 -88.96559,0 0,30.0568 z"
         id="path25318"
         inkscape:connector-curvature="0"
         sodipodi:nodetypes="ccccc" />
    </g>
    <g
       transform="translate(450,-1.1015625e-5)"
       id="g25320">
      <path
         inkscape:connector-curvature="0"
         id="path25322"
         d="m -1040.1251,1295.563 c -3.0888,2.5326 -5.0625,6.3817 -5.0625,10.6875 0,4.2902 1.9617,8.1233 5.0312,10.6563 l 17.5626,0 c 3.0695,-2.533 5.0312,-6.3661 5.0312,-10.6563 0,-4.3058 -1.9737,-8.1549 -5.0625,-10.6875 l -17.5,0 z"
         style="fill:none;stroke:#000000;stroke-width:0.09;stroke-miterlimit:4;stroke-opacity:1;stroke-dasharray:none;display:inline" />
      <path
         transform="matrix(0.23953158,0,0,0.23953158,-987.57048,1267.344)"
         d="m 262.85715,162.36218 c 0,38.65994 -31.34007,70 -70,70 -38.65994,0 -70,-31.34006 -70,-70 0,-38.65993 31.34006,-69.999997 70,-69.999997 38.65993,0 70,31.340067 70,69.999997 z"
         sodipodi:ry="70"
         sodipodi:rx="70"
         sodipodi:cy="162.36218"
         sodipodi:cx="192.85715"
         id="path25324"
         style="fill:none;stroke:#000000;stroke-width:0.37573335;stroke-miterlimit:4;stroke-opacity:1;stroke-dasharray:none;stroke-dashoffset:0"
         sodipodi:type="arc" />
      <path
         sodipodi:nodetypes="ccccc"
         inkscape:connector-curvature="0"
         id="path25326"
         d="m -941.89231,1321.2633 0,-30.0568 -88.96559,0 0,30.0568 z"
         style="fill:none;stroke:#000000;stroke-width:1.03442395;stroke-linecap:butt;stroke-linejoin:miter;stroke-miterlimit:4;stroke-opacity:1;stroke-dasharray:4.13769588, 4.13769588;stroke-dashoffset:0" />
    </g>
    <path
       style="fill:none;stroke:#000000;stroke-width:1px;stroke-linecap:butt;stroke-linejoin:miter;stroke-opacity:1"
       d="m -256.32726,-481.65581 90,45 -90,45 90,45.00001 -90,44.99999 90,45.00001 -90,45 90,45 -90,45 90,45.000005 -90,44.99999 90,45 -90,45 90,44.999995 -90,45 90,45 -90,45 90,45 -90,45 90,44.99999 -90,45 90,45 -90,45.00003 90,45 -90,45 90,45 -89.75,44.75 90.25,44.75 -90,45 90,45 -90,45"
       id="path3107"
       inkscape:connector-curvature="0"
       sodipodi:nodetypes="ccccccccccccccccccccccccccccccc" />
    <rect
       style="fill:none;stroke:#000000;stroke-width:0.09;stroke-miterlimit:4;stroke-opacity:1;stroke-dasharray:none;stroke-dashoffset:0"
       id="rect3057"
       width="227.61867"
       height="92.596893"
       x="2642.2844"
       y="742.81134" />
  </g>
</svg>
