<?xml version="1.0" encoding="UTF-8" standalone="no"?>
<!-- Created with Inkscape (http://www.inkscape.org/) -->

<svg
   xmlns:dc="http://purl.org/dc/elements/1.1/"
   xmlns:cc="http://creativecommons.org/ns#"
   xmlns:rdf="http://www.w3.org/1999/02/22-rdf-syntax-ns#"
   xmlns:svg="http://www.w3.org/2000/svg"
   xmlns="http://www.w3.org/2000/svg"
   xmlns:sodipodi="http://sodipodi.sourceforge.net/DTD/sodipodi-0.dtd"
   xmlns:inkscape="http://www.inkscape.org/namespaces/inkscape"
   width="16in"
   height="11in"
   viewBox="0 0 406.40001 279.40001"
   version="1.1"
   id="svg5859"
   inkscape:version="0.92.3 (2405546, 2018-03-11)"
   sodipodi:docname="powersupply-box.svg">
  <defs
     id="defs5853" />
  <sodipodi:namedview
     id="base"
     pagecolor="#ffffff"
     bordercolor="#666666"
     borderopacity="1.0"
     inkscape:pageopacity="0.0"
     inkscape:pageshadow="2"
     inkscape:zoom="1.979899"
     inkscape:cx="1144.208"
     inkscape:cy="805.36937"
     inkscape:document-units="in"
     inkscape:current-layer="layer1"
     showgrid="false"
     units="in"
     inkscape:window-width="1916"
     inkscape:window-height="1036"
     inkscape:window-x="0"
     inkscape:window-y="20"
     inkscape:window-maximized="1"
     showguides="true"
     inkscape:guide-bbox="true"
     inkscape:snap-bbox="true"
     inkscape:snap-bbox-midpoints="true"
     inkscape:snap-bbox-edge-midpoints="false"
     inkscape:measure-start="1377.14,687.143"
     inkscape:measure-end="1377.14,551.429"
     inkscape:bbox-nodes="true"
     inkscape:snap-global="true">
    <sodipodi:guide
       position="401.75842,34.318283"
       orientation="0,1"
       id="guide1956"
       inkscape:locked="false"
       inkscape:label=""
       inkscape:color="rgb(0,0,255)" />
    <sodipodi:guide
       position="401.74572,115.61098"
       orientation="0,1"
       id="guide1409"
       inkscape:locked="false"
       inkscape:label=""
       inkscape:color="rgb(0,0,255)" />
  </sodipodi:namedview>
  <metadata
     id="metadata5856">
    <rdf:RDF>
      <cc:Work
         rdf:about="">
        <dc:format>image/svg+xml</dc:format>
        <dc:type
           rdf:resource="http://purl.org/dc/dcmitype/StillImage" />
        <dc:title />
      </cc:Work>
    </rdf:RDF>
  </metadata>
  <g
     inkscape:label="Layer 1"
     inkscape:groupmode="layer"
     id="layer1"
     transform="translate(0,-17.599984)">
    <path
       style="fill:none;fill-opacity:0.07999998;stroke:#000000;stroke-width:0.0254;stroke-miterlimit:4;stroke-dasharray:none;stroke-dashoffset:0;stroke-opacity:1"
       d="m 2.7891248,117.45406 v 177.80002 h 6.3629194 v 0.0124 H 66.302046 V 187.31647 H 231.40205 v 107.94999 h 82.55001 v -0.0124 h 6.36291 v -177.8 h -13.03176 v 0.0124 H 14.752219 v -0.0124 z"
       id="rect1943"
       inkscape:connector-curvature="0" />
    <path
       inkscape:connector-curvature="0"
       id="rect1139"
       style="fill:none;fill-opacity:0.07999998;stroke:#000000;stroke-width:0.0254;stroke-miterlimit:4;stroke-dasharray:none;stroke-dashoffset:0;stroke-opacity:1"
       d="M 2.4275187,23.781269 H 319.89954 V 112.65327 H 2.4275187 Z M 104.47965,36.477616 41.000312,99.95696 35.444065,98.7963 97.762736,36.477626 Z m -25.144143,8e-5 -43.891453,43.891819 1.1e-5,-6.717919 37.174403,-37.17405 z m -25.144271,-6e-5 -18.747174,18.74717 v -6.7169 l 12.030271,-12.03027 z m 75.432604,-10e-6 -63.479324,63.479324 -6.716945,-4e-5 63.478899,-63.479244 z m 25.14421,0 -63.479332,63.479324 -6.71738,5e-5 63.479772,-63.479424 z m 25.14374,4e-5 -63.47891,63.479244 h -6.7169 l 63.4789,-63.479244 z m 25.14419,0 -63.4789,63.479244 h -6.7169 l 63.4789,-63.479244 z m 25.14419,0 -63.47889,63.479244 -6.71738,5e-5 63.47932,-63.479334 z m 25.1442,0 -63.47889,63.479244 -6.71785,9e-5 63.47977,-63.479424 z m 25.14418,-10e-6 -63.47886,63.479254 -6.71738,4e-5 63.47934,-63.479334 z m 6.39445,18.749729 -44.72959,44.729575 -6.71689,-10e-6 51.44646,-51.446464 z m -2e-5,25.14421 -19.58536,19.585365 -6.7169,-10e-6 26.30226,-26.302264 z" />
    <path
       id="rect1945"
       style="fill:none;fill-opacity:0.07999998;stroke:#000000;stroke-width:0.0254;stroke-miterlimit:4;stroke-dasharray:none;stroke-dashoffset:0;stroke-opacity:1"
       d="m 360.7247,232.53527 h 5.84202 v 2.88045 a 9.5821503,9.5821503 0 0 1 6.6611,9.12192 9.5821503,9.5821503 0 0 1 -9.58236,9.58185 9.5821503,9.5821503 0 0 1 -9.58184,-9.58185 9.5821503,9.5821503 0 0 1 6.66108,-9.11417 z M 349.16753,151.5438 h 28.95637 v 59.69042 h -28.95637 z m -23.62181,-34.92479 v 177.8 h 76.2 v -177.8 z" />
  </g>
</svg>
