<?xml version="1.0" encoding="UTF-8" standalone="no"?>
<!-- Created with Inkscape (http://www.inkscape.org/) -->

<svg
   xmlns:dc="http://purl.org/dc/elements/1.1/"
   xmlns:cc="http://creativecommons.org/ns#"
   xmlns:rdf="http://www.w3.org/1999/02/22-rdf-syntax-ns#"
   xmlns:svg="http://www.w3.org/2000/svg"
   xmlns="http://www.w3.org/2000/svg"
   xmlns:sodipodi="http://sodipodi.sourceforge.net/DTD/sodipodi-0.dtd"
   xmlns:inkscape="http://www.inkscape.org/namespaces/inkscape"
   width="16in"
   height="11in"
   viewBox="0 0 406.40001 279.40001"
   version="1.1"
   id="svg5859"
   inkscape:version="0.92.3 (2405546, 2018-03-11)"
   sodipodi:docname="powersupply-box.svg">
  <defs
     id="defs5853" />
  <sodipodi:namedview
     id="base"
     pagecolor="#ffffff"
     bordercolor="#666666"
     borderopacity="1.0"
     inkscape:pageopacity="0.0"
     inkscape:pageshadow="2"
     inkscape:zoom="1.4"
     inkscape:cx="460.5409"
     inkscape:cy="254.00547"
     inkscape:document-units="in"
     inkscape:current-layer="layer1"
     showgrid="false"
     units="in"
     inkscape:window-width="1916"
     inkscape:window-height="1036"
     inkscape:window-x="0"
     inkscape:window-y="20"
     inkscape:window-maximized="1"
     showguides="true"
     inkscape:guide-bbox="true"
     inkscape:snap-bbox="true"
     inkscape:snap-bbox-midpoints="true"
     inkscape:snap-bbox-edge-midpoints="false"
     inkscape:measure-start="826.59,138.527"
     inkscape:measure-end="826.429,7.85714"
     inkscape:bbox-nodes="true"
     inkscape:snap-global="true">
    <sodipodi:guide
       position="401.75842,34.318283"
       orientation="0,1"
       id="guide1956"
       inkscape:locked="false"
       inkscape:label=""
       inkscape:color="rgb(0,0,255)" />
    <sodipodi:guide
       position="401.74572,115.61098"
       orientation="0,1"
       id="guide1409"
       inkscape:locked="false"
       inkscape:label=""
       inkscape:color="rgb(0,0,255)" />
  </sodipodi:namedview>
  <metadata
     id="metadata5856">
    <rdf:RDF>
      <cc:Work
         rdf:about="">
        <dc:format>image/svg+xml</dc:format>
        <dc:type
           rdf:resource="http://purl.org/dc/dcmitype/StillImage" />
        <dc:title />
      </cc:Work>
    </rdf:RDF>
  </metadata>
  <g
     inkscape:label="Layer 1"
     inkscape:groupmode="layer"
     id="layer1"
     transform="translate(0,-17.599984)">
    <path
       style="fill:none;fill-opacity:1;stroke:#000000;stroke-width:0.09599999;stroke-miterlimit:4;stroke-dasharray:none;stroke-dashoffset:0;stroke-opacity:1"
       d="M 10.541016 377.40039 L 10.541016 1049.4004 L 11.798828 1049.4004 C 11.916041 1049.4291 12.035802 1049.4473 12.162109 1049.4473 L 34.589844 1049.4473 L 250.58984 1049.4473 L 874.58984 1049.4473 L 1186.5898 1049.4473 L 1209.1152 1049.4473 C 1209.2417 1049.4473 1209.3631 1049.4292 1209.4805 1049.4004 L 1210.6387 1049.4004 L 1210.6387 1047.9238 L 1210.6387 978.97266 L 1210.6387 377.40039 L 1161.3848 377.40039 L 1161.3848 377.44727 L 55.755859 377.44727 L 55.755859 377.40039 L 10.541016 377.40039 z M 250.58984 677.47266 L 874.58984 677.47266 L 874.58984 737.47266 L 828.60938 737.47266 C 827.49013 737.47266 826.58984 738.37294 826.58984 739.49219 L 826.58984 915.45312 C 826.58984 916.57237 827.49013 917.47266 828.60938 917.47266 L 874.58984 917.47266 L 874.58984 977.44727 L 250.58984 977.44727 L 250.58984 677.47266 z "
       transform="matrix(0.26458334,0,0,0.26458334,0,17.599984)"
       id="rect1943" />
    <path
       inkscape:connector-curvature="0"
       id="rect1139"
       style="fill:none;fill-opacity:0.07999998;stroke:#000000;stroke-width:0.0254;stroke-miterlimit:4;stroke-dasharray:none;stroke-dashoffset:0;stroke-opacity:1"
       d="M 2.4275187,23.781269 H 319.89954 V 112.65327 H 2.4275187 Z M 104.47965,36.477616 41.000312,99.95696 35.444065,98.7963 97.762736,36.477626 Z m -25.144143,8e-5 -43.891453,43.891819 1.1e-5,-6.717919 37.174403,-37.17405 z m -25.144271,-6e-5 -18.747174,18.74717 v -6.7169 l 12.030271,-12.03027 z m 75.432604,-10e-6 -63.479324,63.479324 -6.716945,-4e-5 63.478899,-63.479244 z m 25.14421,0 -63.479332,63.479324 -6.71738,5e-5 63.479772,-63.479424 z m 25.14374,4e-5 -63.47891,63.479244 h -6.7169 l 63.4789,-63.479244 z m 25.14419,0 -63.4789,63.479244 h -6.7169 l 63.4789,-63.479244 z m 25.14419,0 -63.47889,63.479244 -6.71738,5e-5 63.47932,-63.479334 z m 25.1442,0 -63.47889,63.479244 -6.71785,9e-5 63.47977,-63.479424 z m 25.14418,-10e-6 -63.47886,63.479254 -6.71738,4e-5 63.47934,-63.479334 z m 6.39445,18.749729 -44.72959,44.729575 -6.71689,-10e-6 51.44646,-51.446464 z m -2e-5,25.14421 -19.58536,19.585365 -6.7169,-10e-6 26.30226,-26.302264 z" />
    <path
       id="rect1945"
       style="fill:none;fill-opacity:0.07999998;stroke:#000000;stroke-width:0.0254;stroke-miterlimit:4;stroke-dasharray:none;stroke-dashoffset:0;stroke-opacity:1"
       d="m 360.7247,232.53527 h 5.84202 v 2.88045 a 9.5821503,9.5821503 0 0 1 6.6611,9.12192 9.5821503,9.5821503 0 0 1 -9.58236,9.58185 9.5821503,9.5821503 0 0 1 -9.58184,-9.58185 9.5821503,9.5821503 0 0 1 6.66108,-9.11417 z M 349.16753,151.5438 h 28.95637 v 59.69042 h -28.95637 z m -23.62181,-34.92479 v 177.8 h 76.2 v -177.8 z" />
  </g>
</svg>
