<?xml version="1.0" encoding="UTF-8" standalone="no"?>
<!-- Created with Inkscape (http://www.inkscape.org/) -->

<svg
   xmlns:dc="http://purl.org/dc/elements/1.1/"
   xmlns:cc="http://creativecommons.org/ns#"
   xmlns:rdf="http://www.w3.org/1999/02/22-rdf-syntax-ns#"
   xmlns:svg="http://www.w3.org/2000/svg"
   xmlns="http://www.w3.org/2000/svg"
   xmlns:sodipodi="http://sodipodi.sourceforge.net/DTD/sodipodi-0.dtd"
   xmlns:inkscape="http://www.inkscape.org/namespaces/inkscape"
   width="1394.9894"
   height="254.83888"
   id="svg2"
   version="1.1"
   inkscape:version="0.48.4 r9939"
   sodipodi:docname="case_side.svg">
  <defs
     id="defs4" />
  <sodipodi:namedview
     id="base"
     pagecolor="#ffffff"
     bordercolor="#666666"
     borderopacity="1.0"
     inkscape:pageopacity="0.0"
     inkscape:pageshadow="2"
     inkscape:zoom="0.70000001"
     inkscape:cx="638.95337"
     inkscape:cy="413.38297"
     inkscape:document-units="in"
     inkscape:current-layer="layer1"
     showgrid="false"
     units="in"
     showguides="true"
     inkscape:guide-bbox="true"
     inkscape:snap-bbox="true"
     inkscape:snap-bbox-midpoints="true"
     inkscape:snap-object-midpoints="true"
     fit-margin-top="0.25"
     fit-margin-left="0.25"
     fit-margin-right="0.25"
     fit-margin-bottom="0.25"
     inkscape:window-width="1918"
     inkscape:window-height="1059"
     inkscape:window-x="1920"
     inkscape:window-y="19"
     inkscape:window-maximized="1">
    <sodipodi:guide
       orientation="0,1"
       position="112.55716,90"
       id="guide2993" />
    <sodipodi:guide
       orientation="1,0"
       position="112.55716,82.41944"
       id="guide2995" />
    <sodipodi:guide
       orientation="0,1"
       position="112.55716,229.5"
       id="guide2997" />
    <sodipodi:guide
       orientation="1,0"
       position="635.45716,82.41944"
       id="guide2999" />
    <sodipodi:guide
       orientation="1,0"
       position="769.55716,172.41944"
       id="guide3013" />
    <sodipodi:guide
       orientation="1,0"
       position="1292.4572,172.41944"
       id="guide3021" />
  </sodipodi:namedview>
  <metadata
     id="metadata7">
    <rdf:RDF>
      <cc:Work
         rdf:about="">
        <dc:format>image/svg+xml</dc:format>
        <dc:type
           rdf:resource="http://purl.org/dc/dcmitype/StillImage" />
        <dc:title></dc:title>
      </cc:Work>
    </rdf:RDF>
  </metadata>
  <g
     inkscape:label="Layer 1"
     inkscape:groupmode="layer"
     id="layer1"
     transform="translate(22.557163,-789.94031)">
    <rect
       style="fill:none;stroke:#000000;stroke-width:0.08057761;stroke-linecap:butt;stroke-linejoin:miter;stroke-miterlimit:4;stroke-opacity:1;stroke-dasharray:none;stroke-dashoffset:0"
       id="rect2987"
       width="1245.2343"
       height="182.22581"
       x="57.498966"
       y="799.28259" />
    <g
       id="g3790">
      <path
         transform="matrix(0.3819014,0,0,0.3819014,-49.458989,900.23629)"
         d="m 379.81735,-222.45819 a 14.647212,14.647212 0 1 1 -29.29443,0 14.647212,14.647212 0 1 1 29.29443,0 z"
         sodipodi:ry="14.647212"
         sodipodi:rx="14.647212"
         sodipodi:cy="-222.45819"
         sodipodi:cx="365.17014"
         id="path3768"
         style="fill:none;stroke:#000000;stroke-width:0.09;stroke-miterlimit:4;stroke-opacity:1;stroke-dasharray:none"
         sodipodi:type="arc" />
      <path
         sodipodi:type="arc"
         style="fill:none;stroke:#000000;stroke-width:0.09;stroke-miterlimit:4;stroke-opacity:1;stroke-dasharray:none"
         id="path3770"
         sodipodi:cx="365.17014"
         sodipodi:cy="-222.45819"
         sodipodi:rx="14.647212"
         sodipodi:ry="14.647212"
         d="m 379.81735,-222.45819 a 14.647212,14.647212 0 1 1 -29.29443,0 14.647212,14.647212 0 1 1 29.29443,0 z"
         transform="matrix(0.3819014,0,0,0.3819014,-49.458989,1039.7363)" />
      <path
         transform="matrix(0.3819014,0,0,0.3819014,473.44101,1039.7363)"
         d="m 379.81735,-222.45819 a 14.647212,14.647212 0 1 1 -29.29443,0 14.647212,14.647212 0 1 1 29.29443,0 z"
         sodipodi:ry="14.647212"
         sodipodi:rx="14.647212"
         sodipodi:cy="-222.45819"
         sodipodi:cx="365.17014"
         id="path3772"
         style="fill:none;stroke:#000000;stroke-width:0.09;stroke-miterlimit:4;stroke-opacity:1;stroke-dasharray:none"
         sodipodi:type="arc" />
      <path
         sodipodi:type="arc"
         style="fill:none;stroke:#000000;stroke-width:0.09;stroke-miterlimit:4;stroke-opacity:1;stroke-dasharray:none"
         id="path3774"
         sodipodi:cx="365.17014"
         sodipodi:cy="-222.45819"
         sodipodi:rx="14.647212"
         sodipodi:ry="14.647212"
         d="m 379.81735,-222.45819 a 14.647212,14.647212 0 1 1 -29.29443,0 14.647212,14.647212 0 1 1 29.29443,0 z"
         transform="matrix(0.3819014,0,0,0.3819014,473.44101,900.23629)" />
    </g>
    <g
       id="g3784"
       transform="translate(22.500001,-3.0006715e-6)">
      <path
         sodipodi:type="arc"
         style="fill:none;stroke:#000000;stroke-width:0.09;stroke-miterlimit:4;stroke-opacity:1;stroke-dasharray:none"
         id="path3776"
         sodipodi:cx="365.17014"
         sodipodi:cy="-222.45819"
         sodipodi:rx="14.647212"
         sodipodi:ry="14.647212"
         d="m 379.81735,-222.45819 c 0,8.08943 -6.55778,14.64721 -14.64721,14.64721 -8.08944,0 -14.64722,-6.55778 -14.64722,-14.64721 0,-8.08943 6.55778,-14.64721 14.64722,-14.64721 8.08943,0 14.64721,6.55778 14.64721,14.64721 z"
         transform="matrix(0.3819014,0,0,0.3819014,585.04101,1039.7363)" />
      <path
         transform="matrix(0.3819014,0,0,0.3819014,585.04101,900.23629)"
         d="m 379.81735,-222.45819 c 0,8.08943 -6.55778,14.64721 -14.64721,14.64721 -8.08944,0 -14.64722,-6.55778 -14.64722,-14.64721 0,-8.08943 6.55778,-14.64721 14.64722,-14.64721 8.08943,0 14.64721,6.55778 14.64721,14.64721 z"
         sodipodi:ry="14.647212"
         sodipodi:rx="14.647212"
         sodipodi:cy="-222.45819"
         sodipodi:cx="365.17014"
         id="path3778"
         style="fill:none;stroke:#000000;stroke-width:0.09;stroke-miterlimit:4;stroke-opacity:1;stroke-dasharray:none"
         sodipodi:type="arc" />
      <path
         sodipodi:type="arc"
         style="fill:none;stroke:#000000;stroke-width:0.09;stroke-miterlimit:4;stroke-opacity:1;stroke-dasharray:none"
         id="path3780"
         sodipodi:cx="365.17014"
         sodipodi:cy="-222.45819"
         sodipodi:rx="14.647212"
         sodipodi:ry="14.647212"
         d="m 379.81735,-222.45819 c 0,8.08943 -6.55778,14.64721 -14.64721,14.64721 -8.08944,0 -14.64722,-6.55778 -14.64722,-14.64721 0,-8.08943 6.55778,-14.64721 14.64722,-14.64721 8.08943,0 14.64721,6.55778 14.64721,14.64721 z"
         transform="matrix(0.3819014,0,0,0.3819014,1107.9411,900.23629)" />
      <path
         transform="matrix(0.3819014,0,0,0.3819014,1107.9411,1039.7363)"
         d="m 379.81735,-222.45819 c 0,8.08943 -6.55778,14.64721 -14.64721,14.64721 -8.08944,0 -14.64722,-6.55778 -14.64722,-14.64721 0,-8.08943 6.55778,-14.64721 14.64722,-14.64721 8.08943,0 14.64721,6.55778 14.64721,14.64721 z"
         sodipodi:ry="14.647212"
         sodipodi:rx="14.647212"
         sodipodi:cy="-222.45819"
         sodipodi:cx="365.17014"
         id="path3782"
         style="fill:none;stroke:#000000;stroke-width:0.09;stroke-miterlimit:4;stroke-opacity:1;stroke-dasharray:none"
         sodipodi:type="arc" />
    </g>
  </g>
</svg>
