<?xml version="1.0" encoding="UTF-8" standalone="no"?>
<!-- Created with Inkscape (http://www.inkscape.org/) -->

<svg
   xmlns:dc="http://purl.org/dc/elements/1.1/"
   xmlns:cc="http://creativecommons.org/ns#"
   xmlns:rdf="http://www.w3.org/1999/02/22-rdf-syntax-ns#"
   xmlns:svg="http://www.w3.org/2000/svg"
   xmlns="http://www.w3.org/2000/svg"
   xmlns:sodipodi="http://sodipodi.sourceforge.net/DTD/sodipodi-0.dtd"
   xmlns:inkscape="http://www.inkscape.org/namespaces/inkscape"
   width="577.55902"
   height="155.9055"
   id="svg3014"
   version="1.1"
   inkscape:version="0.48.1 r9760"
   sodipodi:docname="seq-one.svg">
  <defs
     id="defs3016" />
  <sodipodi:namedview
     id="base"
     pagecolor="#ffffff"
     bordercolor="#666666"
     borderopacity="1.0"
     inkscape:pageopacity="0.0"
     inkscape:pageshadow="2"
     inkscape:zoom="1.4"
     inkscape:cx="283.67992"
     inkscape:cy="102.29189"
     inkscape:document-units="mm"
     inkscape:current-layer="layer1"
     showgrid="true"
     units="mm"
     showguides="true"
     inkscape:guide-bbox="true"
     inkscape:snap-bbox="true"
     inkscape:snap-bbox-midpoints="false"
     inkscape:snap-nodes="false"
     inkscape:bbox-nodes="false"
     inkscape:snap-bbox-edge-midpoints="false"
     inkscape:bbox-paths="false"
     inkscape:snap-object-midpoints="true"
     inkscape:snap-to-guides="true"
     inkscape:snap-center="false"
     inkscape:snap-global="true"
     inkscape:window-width="1918"
     inkscape:window-height="1059"
     inkscape:window-x="0"
     inkscape:window-y="19"
     inkscape:window-maximized="0">
    <inkscape:grid
       type="xygrid"
       id="grid3045"
       empspacing="5"
       visible="true"
       enabled="true"
       snapvisiblegridlinesonly="true"
       spacingx="20.25mm"
       spacingy="18mm"
       units="mm"
       originy="-10mm"
       originx="9.7mm" />
    <sodipodi:guide
       orientation="0,1"
       position="34.370079,141.02362"
       id="guide3046" />
  </sodipodi:namedview>
  <metadata
     id="metadata3019">
    <rdf:RDF>
      <cc:Work
         rdf:about="">
        <dc:format>image/svg+xml</dc:format>
        <dc:type
           rdf:resource="http://purl.org/dc/dcmitype/StillImage" />
        <dc:title />
      </cc:Work>
    </rdf:RDF>
  </metadata>
  <g
     inkscape:label="Layer 1"
     inkscape:groupmode="layer"
     id="layer1"
     transform="translate(0,-896.45668)">
    <path
       transform="matrix(0.61410028,0,0,0.61410028,-27.48863,879.38663)"
       d="m 119.08746,131.0789 a 17.780418,17.780418 0 1 1 -35.560841,0 17.780418,17.780418 0 1 1 35.560841,0 z"
       sodipodi:ry="17.780418"
       sodipodi:rx="17.780418"
       sodipodi:cy="131.0789"
       sodipodi:cx="101.30704"
       id="path3042"
       style="fill:#000000;fill-opacity:0;stroke:#000000;stroke-width:0.09;stroke-miterlimit:4;stroke-opacity:1;stroke-dasharray:none"
       sodipodi:type="arc" />
    <path
       transform="matrix(0.88883754,0,0,0.88883532,-59.541174,909.90378)"
       d="m 114.95247,128.18442 a 9.0969582,9.0969582 0 1 1 -18.193921,0 9.0969582,9.0969582 0 1 1 18.193921,0 z"
       sodipodi:ry="9.0969582"
       sodipodi:rx="9.0969582"
       sodipodi:cy="128.18442"
       sodipodi:cx="105.85551"
       id="path3044"
       style="fill:#000000;fill-opacity:0;stroke:#000000;stroke-width:0.09;stroke-miterlimit:4;stroke-opacity:1;stroke-dasharray:none"
       sodipodi:type="arc" />
    <path
       sodipodi:type="arc"
       style="fill:#000000;fill-opacity:1;stroke:none"
       id="path3048"
       sodipodi:cx="51.51778"
       sodipodi:cy="33.424507"
       sodipodi:rx="6.0609155"
       sodipodi:ry="6.3134532"
       d="m 57.578696,33.424507 a 6.0609155,6.3134532 0 1 1 -12.121831,0 6.0609155,6.3134532 0 1 1 12.121831,0 z"
       transform="matrix(1.0127852,0,0,0.97242927,-17.806362,876.83559)" />
    <path
       sodipodi:type="arc"
       style="fill:#000000;fill-opacity:0;stroke:#000000;stroke-width:0.09;stroke-miterlimit:4;stroke-opacity:1;stroke-dasharray:none"
       id="path3036"
       sodipodi:cx="101.30704"
       sodipodi:cy="131.0789"
       sodipodi:rx="17.780418"
       sodipodi:ry="17.780418"
       d="m 119.08746,131.0789 a 17.780418,17.780418 0 1 1 -35.560841,0 17.780418,17.780418 0 1 1 35.560841,0 z"
       transform="matrix(0.61410028,0,0,0.61410028,44.26334,879.38663)" />
    <path
       sodipodi:type="arc"
       style="fill:#000000;fill-opacity:0;stroke:#000000;stroke-width:0.09;stroke-miterlimit:4;stroke-opacity:1;stroke-dasharray:none"
       id="path3038"
       sodipodi:cx="105.85551"
       sodipodi:cy="128.18442"
       sodipodi:rx="9.0969582"
       sodipodi:ry="9.0969582"
       d="m 114.95247,128.18442 a 9.0969582,9.0969582 0 1 1 -18.193921,0 9.0969582,9.0969582 0 1 1 18.193921,0 z"
       transform="matrix(0.88883754,0,0,0.88883532,12.210796,909.90378)" />
    <path
       transform="matrix(1.0127852,0,0,0.97242978,53.945604,876.83558)"
       d="m 57.578696,33.424507 a 6.0609155,6.3134532 0 1 1 -12.121831,0 6.0609155,6.3134532 0 1 1 12.121831,0 z"
       sodipodi:ry="6.3134532"
       sodipodi:rx="6.0609155"
       sodipodi:cy="33.424507"
       sodipodi:cx="51.51778"
       id="path3818"
       style="fill:#000000;fill-opacity:1;stroke:none"
       sodipodi:type="arc" />
    <path
       transform="matrix(0.61410028,0,0,0.61410028,116.01531,879.38663)"
       d="m 119.08746,131.0789 a 17.780418,17.780418 0 1 1 -35.560841,0 17.780418,17.780418 0 1 1 35.560841,0 z"
       sodipodi:ry="17.780418"
       sodipodi:rx="17.780418"
       sodipodi:cy="131.0789"
       sodipodi:cx="101.30704"
       id="path3030"
       style="fill:#000000;fill-opacity:0;stroke:#000000;stroke-width:0.09;stroke-miterlimit:4;stroke-opacity:1;stroke-dasharray:none"
       sodipodi:type="arc" />
    <path
       transform="matrix(0.88883754,0,0,0.88883532,83.962768,909.90378)"
       d="m 114.95247,128.18442 a 9.0969582,9.0969582 0 1 1 -18.193921,0 9.0969582,9.0969582 0 1 1 18.193921,0 z"
       sodipodi:ry="9.0969582"
       sodipodi:rx="9.0969582"
       sodipodi:cy="128.18442"
       sodipodi:cx="105.85551"
       id="path3032"
       style="fill:#000000;fill-opacity:0;stroke:#000000;stroke-width:0.09;stroke-miterlimit:4;stroke-opacity:1;stroke-dasharray:none"
       sodipodi:type="arc" />
    <path
       sodipodi:type="arc"
       style="fill:#000000;fill-opacity:1;stroke:none"
       id="path3820"
       sodipodi:cx="51.51778"
       sodipodi:cy="33.424507"
       sodipodi:rx="6.0609155"
       sodipodi:ry="6.3134532"
       d="m 57.578696,33.424507 a 6.0609155,6.3134532 0 1 1 -12.121831,0 6.0609155,6.3134532 0 1 1 12.121831,0 z"
       transform="matrix(1.0127852,0,0,0.97242978,125.69757,876.83558)" />
    <path
       sodipodi:type="arc"
       style="fill:#000000;fill-opacity:0;stroke:#000000;stroke-width:0.09;stroke-miterlimit:4;stroke-opacity:1;stroke-dasharray:none"
       id="path3000"
       sodipodi:cx="101.30704"
       sodipodi:cy="131.0789"
       sodipodi:rx="17.780418"
       sodipodi:ry="17.780418"
       d="m 119.08746,131.0789 a 17.780418,17.780418 0 1 1 -35.560841,0 17.780418,17.780418 0 1 1 35.560841,0 z"
       transform="matrix(0.61410028,0,0,0.61410028,187.76728,879.38663)" />
    <path
       sodipodi:type="arc"
       style="fill:#000000;fill-opacity:0;stroke:#000000;stroke-width:0.09;stroke-miterlimit:4;stroke-opacity:1;stroke-dasharray:none"
       id="path3002"
       sodipodi:cx="105.85551"
       sodipodi:cy="128.18442"
       sodipodi:rx="9.0969582"
       sodipodi:ry="9.0969582"
       d="m 114.95247,128.18442 a 9.0969582,9.0969582 0 1 1 -18.193921,0 9.0969582,9.0969582 0 1 1 18.193921,0 z"
       transform="matrix(0.88883754,0,0,0.88883532,155.71474,909.90378)" />
    <path
       transform="matrix(1.0127852,0,0,0.97242978,197.44954,876.83558)"
       d="m 57.578696,33.424507 a 6.0609155,6.3134532 0 1 1 -12.121831,0 6.0609155,6.3134532 0 1 1 12.121831,0 z"
       sodipodi:ry="6.3134532"
       sodipodi:rx="6.0609155"
       sodipodi:cy="33.424507"
       sodipodi:cx="51.51778"
       id="path3822"
       style="fill:#000000;fill-opacity:1;stroke:none"
       sodipodi:type="arc" />
    <path
       transform="matrix(0.61410028,0,0,0.61410028,259.51925,879.38663)"
       d="m 119.08746,131.0789 a 17.780418,17.780418 0 1 1 -35.560841,0 17.780418,17.780418 0 1 1 35.560841,0 z"
       sodipodi:ry="17.780418"
       sodipodi:rx="17.780418"
       sodipodi:cy="131.0789"
       sodipodi:cx="101.30704"
       id="path3006"
       style="fill:#000000;fill-opacity:0;stroke:#000000;stroke-width:0.09;stroke-miterlimit:4;stroke-opacity:1;stroke-dasharray:none"
       sodipodi:type="arc" />
    <path
       transform="matrix(0.88883754,0,0,0.88883532,227.46671,909.90378)"
       d="m 114.95247,128.18442 a 9.0969582,9.0969582 0 1 1 -18.193921,0 9.0969582,9.0969582 0 1 1 18.193921,0 z"
       sodipodi:ry="9.0969582"
       sodipodi:rx="9.0969582"
       sodipodi:cy="128.18442"
       sodipodi:cx="105.85551"
       id="path3008"
       style="fill:#000000;fill-opacity:0;stroke:#000000;stroke-width:0.09;stroke-miterlimit:4;stroke-opacity:1;stroke-dasharray:none"
       sodipodi:type="arc" />
    <path
       sodipodi:type="arc"
       style="fill:#000000;fill-opacity:1;stroke:none"
       id="path3824"
       sodipodi:cx="51.51778"
       sodipodi:cy="33.424507"
       sodipodi:rx="6.0609155"
       sodipodi:ry="6.3134532"
       d="m 57.578696,33.424507 a 6.0609155,6.3134532 0 1 1 -12.121831,0 6.0609155,6.3134532 0 1 1 12.121831,0 z"
       transform="matrix(1.0127852,0,0,0.97242978,269.2015,876.83558)" />
    <path
       sodipodi:type="arc"
       style="fill:#000000;fill-opacity:0;stroke:#000000;stroke-width:0.09;stroke-miterlimit:4;stroke-opacity:1;stroke-dasharray:none"
       id="path3012"
       sodipodi:cx="101.30704"
       sodipodi:cy="131.0789"
       sodipodi:rx="17.780418"
       sodipodi:ry="17.780418"
       d="m 119.08746,131.0789 a 17.780418,17.780418 0 1 1 -35.560841,0 17.780418,17.780418 0 1 1 35.560841,0 z"
       transform="matrix(0.61410028,0,0,0.61410028,331.27122,879.38663)" />
    <path
       sodipodi:type="arc"
       style="fill:#000000;fill-opacity:0;stroke:#000000;stroke-width:0.09;stroke-miterlimit:4;stroke-opacity:1;stroke-dasharray:none"
       id="path3014"
       sodipodi:cx="105.85551"
       sodipodi:cy="128.18442"
       sodipodi:rx="9.0969582"
       sodipodi:ry="9.0969582"
       d="m 114.95247,128.18442 a 9.0969582,9.0969582 0 1 1 -18.193921,0 9.0969582,9.0969582 0 1 1 18.193921,0 z"
       transform="matrix(0.88883974,0,0,0.88883752,299.21846,909.90348)" />
    <path
       transform="matrix(1.0127852,0,0,0.97242978,340.95348,876.83558)"
       d="m 57.578696,33.424507 a 6.0609155,6.3134532 0 1 1 -12.121831,0 6.0609155,6.3134532 0 1 1 12.121831,0 z"
       sodipodi:ry="6.3134532"
       sodipodi:rx="6.0609155"
       sodipodi:cy="33.424507"
       sodipodi:cx="51.51778"
       id="path3826"
       style="fill:#000000;fill-opacity:1;stroke:none"
       sodipodi:type="arc" />
    <path
       transform="matrix(0.61410028,0,0,0.61410028,403.02319,879.38663)"
       d="m 119.08746,131.0789 a 17.780418,17.780418 0 1 1 -35.560841,0 17.780418,17.780418 0 1 1 35.560841,0 z"
       sodipodi:ry="17.780418"
       sodipodi:rx="17.780418"
       sodipodi:cy="131.0789"
       sodipodi:cx="101.30704"
       id="path3018"
       style="fill:#000000;fill-opacity:0;stroke:#000000;stroke-width:0.09;stroke-miterlimit:4;stroke-opacity:1;stroke-dasharray:none"
       sodipodi:type="arc" />
    <path
       transform="matrix(0.88874946,0,0,0.88874723,370.97918,909.91585)"
       d="m 114.95247,128.18442 a 9.0969582,9.0969582 0 1 1 -18.193921,0 9.0969582,9.0969582 0 1 1 18.193921,0 z"
       sodipodi:ry="9.0969582"
       sodipodi:rx="9.0969582"
       sodipodi:cy="128.18442"
       sodipodi:cx="105.85551"
       id="path3020"
       style="fill:#000000;fill-opacity:0;stroke:#000000;stroke-width:0.09;stroke-miterlimit:4;stroke-opacity:1;stroke-dasharray:none"
       sodipodi:type="arc" />
    <path
       sodipodi:type="arc"
       style="fill:#000000;fill-opacity:1;stroke:none"
       id="path3828"
       sodipodi:cx="51.51778"
       sodipodi:cy="33.424507"
       sodipodi:rx="6.0609155"
       sodipodi:ry="6.3134532"
       d="m 57.578696,33.424507 a 6.0609155,6.3134532 0 1 1 -12.121831,0 6.0609155,6.3134532 0 1 1 12.121831,0 z"
       transform="matrix(1.0127852,0,0,0.97242978,412.70545,876.83558)" />
    <path
       sodipodi:type="arc"
       style="fill:#000000;fill-opacity:0;stroke:#000000;stroke-width:0.09;stroke-miterlimit:4;stroke-opacity:1;stroke-dasharray:none"
       id="path3024"
       sodipodi:cx="101.30704"
       sodipodi:cy="131.0789"
       sodipodi:rx="17.780418"
       sodipodi:ry="17.780418"
       d="m 119.08746,131.0789 a 17.780418,17.780418 0 1 1 -35.560841,0 17.780418,17.780418 0 1 1 35.560841,0 z"
       transform="matrix(0.61410028,0,0,0.61410028,474.77515,879.38663)" />
    <path
       sodipodi:type="arc"
       style="fill:#000000;fill-opacity:0;stroke:#000000;stroke-width:0.09;stroke-miterlimit:4;stroke-opacity:1;stroke-dasharray:none"
       id="path3026"
       sodipodi:cx="105.85551"
       sodipodi:cy="128.18442"
       sodipodi:rx="9.0969582"
       sodipodi:ry="9.0969582"
       d="m 114.95247,128.18442 a 9.0969582,9.0969582 0 1 1 -18.193921,0 9.0969582,9.0969582 0 1 1 18.193921,0 z"
       transform="matrix(0.88855473,0,0,0.88855251,442.75005,909.94254)" />
    <path
       transform="matrix(1.0127852,0,0,0.97242978,484.45741,876.83558)"
       d="m 57.578696,33.424507 a 6.0609155,6.3134532 0 1 1 -12.121831,0 6.0609155,6.3134532 0 1 1 12.121831,0 z"
       sodipodi:ry="6.3134532"
       sodipodi:rx="6.0609155"
       sodipodi:cy="33.424507"
       sodipodi:cx="51.51778"
       id="path3830"
       style="fill:#000000;fill-opacity:1;stroke:none"
       sodipodi:type="arc" />
  </g>
</svg>
