<?xml version="1.0" encoding="UTF-8" standalone="no"?>
<!-- Created with Inkscape (http://www.inkscape.org/) -->

<svg
   xmlns:dc="http://purl.org/dc/elements/1.1/"
   xmlns:cc="http://creativecommons.org/ns#"
   xmlns:rdf="http://www.w3.org/1999/02/22-rdf-syntax-ns#"
   xmlns:svg="http://www.w3.org/2000/svg"
   xmlns="http://www.w3.org/2000/svg"
   xmlns:xlink="http://www.w3.org/1999/xlink"
   xmlns:sodipodi="http://sodipodi.sourceforge.net/DTD/sodipodi-0.dtd"
   xmlns:inkscape="http://www.inkscape.org/namespaces/inkscape"
   width="675"
   height="652.5"
   id="svg2"
   version="1.1"
   inkscape:version="0.48.2 r9819"
   sodipodi:docname="sympleseq.svg">
  <defs
     id="defs4">
    <inkscape:perspective
       id="perspective42597"
       inkscape:persp3d-origin="372.04724 : 350.78739 : 1"
       inkscape:vp_z="744.09448 : 526.18109 : 1"
       inkscape:vp_y="0 : 1000 : 0"
       inkscape:vp_x="0 : 526.18109 : 1"
       sodipodi:type="inkscape:persp3d" />
  </defs>
  <sodipodi:namedview
     id="base"
     pagecolor="#ffffff"
     bordercolor="#666666"
     borderopacity="1.0"
     inkscape:pageopacity="0.0"
     inkscape:pageshadow="2"
     inkscape:zoom="1.2091954"
     inkscape:cx="326.39807"
     inkscape:cy="321.3166"
     inkscape:document-units="in"
     inkscape:current-layer="layer1"
     showgrid="true"
     units="in"
     inkscape:snap-global="true"
     showguides="true"
     inkscape:guide-bbox="true"
     inkscape:window-width="1918"
     inkscape:window-height="1059"
     inkscape:window-x="0"
     inkscape:window-y="24"
     inkscape:window-maximized="0"
     inkscape:snap-bbox="false"
     inkscape:bbox-paths="true"
     inkscape:snap-bbox-midpoints="false"
     inkscape:snap-object-midpoints="false"
     inkscape:snap-nodes="true"
     gridtolerance="10"
     inkscape:snap-center="true">
    <inkscape:grid
       type="xygrid"
       id="grid2985"
       empspacing="2"
       visible="true"
       enabled="true"
       snapvisiblegridlinesonly="true"
       units="in"
       spacingx="0.25in"
       spacingy="0.3984in"
       originy="0in"
       dotted="false"
       originx="0.125in"
       empcolor="#ff0000"
       empopacity="0.25098039" />
    <sodipodi:guide
       orientation="0,1"
       position="126.54,6.75"
       id="guide3757" />
    <sodipodi:guide
       orientation="0,1"
       position="170.36122,636.75"
       id="guide3759" />
    <sodipodi:guide
       orientation="1,0"
       position="326.25,198.47909"
       id="guide3992" />
  </sodipodi:namedview>
  <metadata
     id="metadata7">
    <rdf:RDF>
      <cc:Work
         rdf:about="">
        <dc:format>image/svg+xml</dc:format>
        <dc:type
           rdf:resource="http://purl.org/dc/dcmitype/StillImage" />
        <dc:title />
      </cc:Work>
    </rdf:RDF>
  </metadata>
  <g
     inkscape:label="Layer 1"
     inkscape:groupmode="layer"
     id="layer1"
     transform="translate(0,-399.862)">
    <rect
       style="fill:none;stroke:#000000;stroke-width:0.26626408;stroke-miterlimit:4;stroke-opacity:1;stroke-dasharray:none;stroke-dashoffset:0"
       id="rect2987"
       width="629.73376"
       height="629.70935"
       x="11.383132"
       y="415.69171" />
    <path
       sodipodi:type="arc"
       style="fill:none;stroke:#0000ff;stroke-width:0.12490913;stroke-miterlimit:4;stroke-opacity:1;stroke-dasharray:none"
       id="path42603"
       sodipodi:cx="18.392857"
       sodipodi:cy="87.321426"
       sodipodi:rx="15.535714"
       sodipodi:ry="15.535714"
       d="m 33.928571,87.321426 c 0,8.580138 -6.955576,15.535714 -15.535714,15.535714 -8.5801384,0 -15.5357146,-6.955576 -15.5357146,-15.535714 0,-8.580138 6.9555762,-15.535714 15.5357146,-15.535714 8.580138,0 15.535714,6.955576 15.535714,15.535714 z"
       transform="matrix(0.45332642,0,0,0.45332642,47.986154,389.82467)" />
    <use
       x="0"
       y="0"
       xlink:href="#path42603"
       id="use3858"
       transform="translate(-3.5987984e-7,602.61025)"
       width="112.5"
       height="652.5" />
    <g
       transform="translate(40.748032,-418.21569)"
       id="g5440">
      <g
         transform="translate(4.7101865e-6,-2.6114321e-7)"
         id="g5434">
        <g
           transform="translate(-179.82284,-14.17323)"
           id="g3040">
          <path
             sodipodi:type="arc"
             style="fill:#000000;fill-opacity:0;stroke:#000000;stroke-width:0.09;stroke-miterlimit:4;stroke-opacity:1;stroke-dasharray:none"
             id="path3042"
             sodipodi:cx="101.30704"
             sodipodi:cy="131.0789"
             sodipodi:rx="17.780418"
             sodipodi:ry="17.780418"
             d="m 119.08746,131.0789 c 0,9.81986 -7.96057,17.78042 -17.78042,17.78042 -9.819857,0 -17.780421,-7.96056 -17.780421,-17.78042 0,-9.81985 7.960564,-17.78042 17.780421,-17.78042 9.81985,0 17.78042,7.96057 17.78042,17.78042 z"
             transform="matrix(0.59430821,0,0,0.59430821,153.98531,896.50816)" />
          <path
             sodipodi:type="arc"
             style="fill:#000000;fill-opacity:0;stroke:#000000;stroke-width:0.09;stroke-miterlimit:4;stroke-opacity:1;stroke-dasharray:none"
             id="path3044"
             sodipodi:cx="105.85551"
             sodipodi:cy="128.18442"
             sodipodi:rx="9.0969582"
             sodipodi:ry="9.0969582"
             d="m 114.95247,128.18442 c 0,5.02411 -4.07285,9.09696 -9.09696,9.09696 -5.02411,0 -9.096961,-4.07285 -9.096961,-9.09696 0,-5.02411 4.072851,-9.09696 9.096961,-9.09696 5.02411,0 9.09696,4.07285 9.09696,9.09696 z"
             transform="matrix(0.86952191,0,0,0.86951974,122.14923,926.73007)" />
        </g>
        <path
           sodipodi:type="arc"
           style="fill:#000000;fill-opacity:1;stroke:none"
           id="path3048"
           sodipodi:cx="51.51778"
           sodipodi:cy="33.424507"
           sodipodi:rx="6.0609155"
           sodipodi:ry="6.3134532"
           d="m 57.578696,33.424507 c 0,3.486824 -2.713565,6.313453 -6.060916,6.313453 -3.347351,0 -6.060915,-2.826629 -6.060915,-6.313453 0,-3.486824 2.713564,-6.313453 6.060915,-6.313453 3.347351,0 6.060916,2.826629 6.060916,6.313453 z"
           transform="matrix(1.0127852,0,0,0.97242927,-17.806367,878.83559)" />
      </g>
      <g
         transform="translate(0.35433321,-2.6114321e-7)"
         id="g5392">
        <g
           id="g3034"
           transform="translate(-108.4252,-14.17323)">
          <path
             transform="matrix(0.59430821,0,0,0.59430821,153.98531,896.50816)"
             d="m 119.08746,131.0789 c 0,9.81986 -7.96057,17.78042 -17.78042,17.78042 -9.819857,0 -17.780421,-7.96056 -17.780421,-17.78042 0,-9.81985 7.960564,-17.78042 17.780421,-17.78042 9.81985,0 17.78042,7.96057 17.78042,17.78042 z"
             sodipodi:ry="17.780418"
             sodipodi:rx="17.780418"
             sodipodi:cy="131.0789"
             sodipodi:cx="101.30704"
             id="path3036"
             style="fill:#000000;fill-opacity:0;stroke:#000000;stroke-width:0.09;stroke-miterlimit:4;stroke-opacity:1;stroke-dasharray:none"
             sodipodi:type="arc" />
          <path
             transform="matrix(0.86952191,0,0,0.86951974,122.14923,926.73007)"
             d="m 114.95247,128.18442 c 0,5.02411 -4.07285,9.09696 -9.09696,9.09696 -5.02411,0 -9.096961,-4.07285 -9.096961,-9.09696 0,-5.02411 4.072851,-9.09696 9.096961,-9.09696 5.02411,0 9.09696,4.07285 9.09696,9.09696 z"
             sodipodi:ry="9.0969582"
             sodipodi:rx="9.0969582"
             sodipodi:cy="128.18442"
             sodipodi:cx="105.85551"
             id="path3038"
             style="fill:#000000;fill-opacity:0;stroke:#000000;stroke-width:0.09;stroke-miterlimit:4;stroke-opacity:1;stroke-dasharray:none"
             sodipodi:type="arc" />
        </g>
        <path
           transform="matrix(1.0127852,0,0,0.97242978,53.591271,878.83558)"
           d="m 57.578696,33.424507 c 0,3.486824 -2.713565,6.313453 -6.060916,6.313453 -3.347351,0 -6.060915,-2.826629 -6.060915,-6.313453 0,-3.486824 2.713564,-6.313453 6.060915,-6.313453 3.347351,0 6.060916,2.826629 6.060916,6.313453 z"
           sodipodi:ry="6.3134532"
           sodipodi:rx="6.0609155"
           sodipodi:cy="33.424507"
           sodipodi:cx="51.51778"
           id="path3818"
           style="fill:#000000;fill-opacity:1;stroke:none"
           sodipodi:type="arc" />
      </g>
      <g
         transform="translate(0.70866172,-2.6114321e-7)"
         id="g5398">
        <g
           transform="translate(-37.02756,-14.17323)"
           id="g3028">
          <path
             sodipodi:type="arc"
             style="fill:#000000;fill-opacity:0;stroke:#000000;stroke-width:0.09;stroke-miterlimit:4;stroke-opacity:1;stroke-dasharray:none"
             id="path3030"
             sodipodi:cx="101.30704"
             sodipodi:cy="131.0789"
             sodipodi:rx="17.780418"
             sodipodi:ry="17.780418"
             d="m 119.08746,131.0789 c 0,9.81986 -7.96057,17.78042 -17.78042,17.78042 -9.819857,0 -17.780421,-7.96056 -17.780421,-17.78042 0,-9.81985 7.960564,-17.78042 17.780421,-17.78042 9.81985,0 17.78042,7.96057 17.78042,17.78042 z"
             transform="matrix(0.59430821,0,0,0.59430821,153.98531,896.50816)" />
          <path
             sodipodi:type="arc"
             style="fill:#000000;fill-opacity:0;stroke:#000000;stroke-width:0.09;stroke-miterlimit:4;stroke-opacity:1;stroke-dasharray:none"
             id="path3032"
             sodipodi:cx="105.85551"
             sodipodi:cy="128.18442"
             sodipodi:rx="9.0969582"
             sodipodi:ry="9.0969582"
             d="m 114.95247,128.18442 c 0,5.02411 -4.07285,9.09696 -9.09696,9.09696 -5.02411,0 -9.096961,-4.07285 -9.096961,-9.09696 0,-5.02411 4.072851,-9.09696 9.096961,-9.09696 5.02411,0 9.09696,4.07285 9.09696,9.09696 z"
             transform="matrix(0.86952191,0,0,0.86951974,122.14923,926.73007)" />
        </g>
        <path
           sodipodi:type="arc"
           style="fill:#000000;fill-opacity:1;stroke:none"
           id="path3820"
           sodipodi:cx="51.51778"
           sodipodi:cy="33.424507"
           sodipodi:rx="6.0609155"
           sodipodi:ry="6.3134532"
           d="m 57.578696,33.424507 c 0,3.486824 -2.713565,6.313453 -6.060916,6.313453 -3.347351,0 -6.060915,-2.826629 -6.060915,-6.313453 0,-3.486824 2.713564,-6.313453 6.060915,-6.313453 3.347351,0 6.060916,2.826629 6.060916,6.313453 z"
           transform="matrix(1.0127852,0,0,0.97242978,124.98891,878.83558)" />
      </g>
      <g
         transform="translate(1.0629922,-2.6114321e-7)"
         id="g5404">
        <g
           id="g2998"
           transform="translate(34.370078,-14.17323)">
          <path
             transform="matrix(0.59430821,0,0,0.59430821,153.98531,896.50816)"
             d="m 119.08746,131.0789 c 0,9.81986 -7.96057,17.78042 -17.78042,17.78042 -9.819857,0 -17.780421,-7.96056 -17.780421,-17.78042 0,-9.81985 7.960564,-17.78042 17.780421,-17.78042 9.81985,0 17.78042,7.96057 17.78042,17.78042 z"
             sodipodi:ry="17.780418"
             sodipodi:rx="17.780418"
             sodipodi:cy="131.0789"
             sodipodi:cx="101.30704"
             id="path3000"
             style="fill:#000000;fill-opacity:0;stroke:#000000;stroke-width:0.09;stroke-miterlimit:4;stroke-opacity:1;stroke-dasharray:none"
             sodipodi:type="arc" />
          <path
             transform="matrix(0.86952191,0,0,0.86951974,122.14923,926.73007)"
             d="m 114.95247,128.18442 c 0,5.02411 -4.07285,9.09696 -9.09696,9.09696 -5.02411,0 -9.096961,-4.07285 -9.096961,-9.09696 0,-5.02411 4.072851,-9.09696 9.096961,-9.09696 5.02411,0 9.09696,4.07285 9.09696,9.09696 z"
             sodipodi:ry="9.0969582"
             sodipodi:rx="9.0969582"
             sodipodi:cy="128.18442"
             sodipodi:cx="105.85551"
             id="path3002"
             style="fill:#000000;fill-opacity:0;stroke:#000000;stroke-width:0.09;stroke-miterlimit:4;stroke-opacity:1;stroke-dasharray:none"
             sodipodi:type="arc" />
        </g>
        <path
           transform="matrix(1.0127852,0,0,0.97242978,196.38655,878.83558)"
           d="m 57.578696,33.424507 c 0,3.486824 -2.713565,6.313453 -6.060916,6.313453 -3.347351,0 -6.060915,-2.826629 -6.060915,-6.313453 0,-3.486824 2.713564,-6.313453 6.060915,-6.313453 3.347351,0 6.060916,2.826629 6.060916,6.313453 z"
           sodipodi:ry="6.3134532"
           sodipodi:rx="6.0609155"
           sodipodi:cy="33.424507"
           sodipodi:cx="51.51778"
           id="path3822"
           style="fill:#000000;fill-opacity:1;stroke:none"
           sodipodi:type="arc" />
      </g>
      <g
         transform="translate(1.4173187,-2.6114321e-7)"
         id="g5410">
        <g
           transform="translate(105.76772,-14.17323)"
           id="g3004">
          <path
             sodipodi:type="arc"
             style="fill:#000000;fill-opacity:0;stroke:#000000;stroke-width:0.09;stroke-miterlimit:4;stroke-opacity:1;stroke-dasharray:none"
             id="path3006"
             sodipodi:cx="101.30704"
             sodipodi:cy="131.0789"
             sodipodi:rx="17.780418"
             sodipodi:ry="17.780418"
             d="m 119.08746,131.0789 c 0,9.81986 -7.96057,17.78042 -17.78042,17.78042 -9.819857,0 -17.780421,-7.96056 -17.780421,-17.78042 0,-9.81985 7.960564,-17.78042 17.780421,-17.78042 9.81985,0 17.78042,7.96057 17.78042,17.78042 z"
             transform="matrix(0.59430821,0,0,0.59430821,153.98531,896.50816)" />
          <path
             sodipodi:type="arc"
             style="fill:#000000;fill-opacity:0;stroke:#000000;stroke-width:0.09;stroke-miterlimit:4;stroke-opacity:1;stroke-dasharray:none"
             id="path3008"
             sodipodi:cx="105.85551"
             sodipodi:cy="128.18442"
             sodipodi:rx="9.0969582"
             sodipodi:ry="9.0969582"
             d="m 114.95247,128.18442 c 0,5.02411 -4.07285,9.09696 -9.09696,9.09696 -5.02411,0 -9.096961,-4.07285 -9.096961,-9.09696 0,-5.02411 4.072851,-9.09696 9.096961,-9.09696 5.02411,0 9.09696,4.07285 9.09696,9.09696 z"
             transform="matrix(0.86952191,0,0,0.86951974,122.14923,926.73007)" />
        </g>
        <path
           sodipodi:type="arc"
           style="fill:#000000;fill-opacity:1;stroke:none"
           id="path3824"
           sodipodi:cx="51.51778"
           sodipodi:cy="33.424507"
           sodipodi:rx="6.0609155"
           sodipodi:ry="6.3134532"
           d="m 57.578696,33.424507 c 0,3.486824 -2.713565,6.313453 -6.060916,6.313453 -3.347351,0 -6.060915,-2.826629 -6.060915,-6.313453 0,-3.486824 2.713564,-6.313453 6.060915,-6.313453 3.347351,0 6.060916,2.826629 6.060916,6.313453 z"
           transform="matrix(1.0127852,0,0,0.97242978,267.78418,878.83558)" />
      </g>
      <g
         transform="translate(1.7716572,-2.6114321e-7)"
         id="g5416">
        <g
           id="g3010"
           transform="translate(177.16535,-14.17323)">
          <path
             transform="matrix(0.59430821,0,0,0.59430821,153.98531,896.50816)"
             d="m 119.08746,131.0789 c 0,9.81986 -7.96057,17.78042 -17.78042,17.78042 -9.819857,0 -17.780421,-7.96056 -17.780421,-17.78042 0,-9.81985 7.960564,-17.78042 17.780421,-17.78042 9.81985,0 17.78042,7.96057 17.78042,17.78042 z"
             sodipodi:ry="17.780418"
             sodipodi:rx="17.780418"
             sodipodi:cy="131.0789"
             sodipodi:cx="101.30704"
             id="path3012"
             style="fill:#000000;fill-opacity:0;stroke:#000000;stroke-width:0.09;stroke-miterlimit:4;stroke-opacity:1;stroke-dasharray:none"
             sodipodi:type="arc" />
          <path
             transform="matrix(0.86952191,0,0,0.86951974,122.14923,926.73007)"
             d="m 114.95247,128.18442 c 0,5.02411 -4.07285,9.09696 -9.09696,9.09696 -5.02411,0 -9.096961,-4.07285 -9.096961,-9.09696 0,-5.02411 4.072851,-9.09696 9.096961,-9.09696 5.02411,0 9.09696,4.07285 9.09696,9.09696 z"
             sodipodi:ry="9.0969582"
             sodipodi:rx="9.0969582"
             sodipodi:cy="128.18442"
             sodipodi:cx="105.85551"
             id="path3014"
             style="fill:#000000;fill-opacity:0;stroke:#000000;stroke-width:0.09;stroke-miterlimit:4;stroke-opacity:1;stroke-dasharray:none"
             sodipodi:type="arc" />
        </g>
        <path
           transform="matrix(1.0127852,0,0,0.97242978,339.18182,878.83558)"
           d="m 57.578696,33.424507 c 0,3.486824 -2.713565,6.313453 -6.060916,6.313453 -3.347351,0 -6.060915,-2.826629 -6.060915,-6.313453 0,-3.486824 2.713564,-6.313453 6.060915,-6.313453 3.347351,0 6.060916,2.826629 6.060916,6.313453 z"
           sodipodi:ry="6.3134532"
           sodipodi:rx="6.0609155"
           sodipodi:cy="33.424507"
           sodipodi:cx="51.51778"
           id="path3826"
           style="fill:#000000;fill-opacity:1;stroke:none"
           sodipodi:type="arc" />
      </g>
      <g
         transform="translate(2.1259857,-2.6114321e-7)"
         id="g5422">
        <g
           transform="translate(248.56299,-14.17323)"
           id="g3016">
          <path
             sodipodi:type="arc"
             style="fill:#000000;fill-opacity:0;stroke:#000000;stroke-width:0.09;stroke-miterlimit:4;stroke-opacity:1;stroke-dasharray:none"
             id="path3018"
             sodipodi:cx="101.30704"
             sodipodi:cy="131.0789"
             sodipodi:rx="17.780418"
             sodipodi:ry="17.780418"
             d="m 119.08746,131.0789 c 0,9.81986 -7.96057,17.78042 -17.78042,17.78042 -9.819857,0 -17.780421,-7.96056 -17.780421,-17.78042 0,-9.81985 7.960564,-17.78042 17.780421,-17.78042 9.81985,0 17.78042,7.96057 17.78042,17.78042 z"
             transform="matrix(0.59430821,0,0,0.59430821,153.98531,896.50816)" />
          <path
             sodipodi:type="arc"
             style="fill:#000000;fill-opacity:0;stroke:#000000;stroke-width:0.09;stroke-miterlimit:4;stroke-opacity:1;stroke-dasharray:none"
             id="path3020"
             sodipodi:cx="105.85551"
             sodipodi:cy="128.18442"
             sodipodi:rx="9.0969582"
             sodipodi:ry="9.0969582"
             d="m 114.95247,128.18442 c 0,5.02411 -4.07285,9.09696 -9.09696,9.09696 -5.02411,0 -9.096961,-4.07285 -9.096961,-9.09696 0,-5.02411 4.072851,-9.09696 9.096961,-9.09696 5.02411,0 9.09696,4.07285 9.09696,9.09696 z"
             transform="matrix(0.86952191,0,0,0.86951974,122.14923,926.73007)" />
        </g>
        <path
           sodipodi:type="arc"
           style="fill:#000000;fill-opacity:1;stroke:none"
           id="path3828"
           sodipodi:cx="51.51778"
           sodipodi:cy="33.424507"
           sodipodi:rx="6.0609155"
           sodipodi:ry="6.3134532"
           d="m 57.578696,33.424507 c 0,3.486824 -2.713565,6.313453 -6.060916,6.313453 -3.347351,0 -6.060915,-2.826629 -6.060915,-6.313453 0,-3.486824 2.713564,-6.313453 6.060915,-6.313453 3.347351,0 6.060916,2.826629 6.060916,6.313453 z"
           transform="matrix(1.0127852,0,0,0.97242978,410.57946,878.83558)" />
      </g>
      <g
         transform="translate(2.4803142,-2.6114321e-7)"
         id="g5428">
        <g
           id="g3022"
           transform="translate(319.96063,-14.17323)">
          <path
             transform="matrix(0.59430821,0,0,0.59430821,153.98531,896.50816)"
             d="m 119.08746,131.0789 c 0,9.81986 -7.96057,17.78042 -17.78042,17.78042 -9.819857,0 -17.780421,-7.96056 -17.780421,-17.78042 0,-9.81985 7.960564,-17.78042 17.780421,-17.78042 9.81985,0 17.78042,7.96057 17.78042,17.78042 z"
             sodipodi:ry="17.780418"
             sodipodi:rx="17.780418"
             sodipodi:cy="131.0789"
             sodipodi:cx="101.30704"
             id="path3024"
             style="fill:#000000;fill-opacity:0;stroke:#000000;stroke-width:0.09;stroke-miterlimit:4;stroke-opacity:1;stroke-dasharray:none"
             sodipodi:type="arc" />
          <path
             transform="matrix(0.86952191,0,0,0.86951974,122.14923,926.73007)"
             d="m 114.95247,128.18442 c 0,5.02411 -4.07285,9.09696 -9.09696,9.09696 -5.02411,0 -9.096961,-4.07285 -9.096961,-9.09696 0,-5.02411 4.072851,-9.09696 9.096961,-9.09696 5.02411,0 9.09696,4.07285 9.09696,9.09696 z"
             sodipodi:ry="9.0969582"
             sodipodi:rx="9.0969582"
             sodipodi:cy="128.18442"
             sodipodi:cx="105.85551"
             id="path3026"
             style="fill:#000000;fill-opacity:0;stroke:#000000;stroke-width:0.09;stroke-miterlimit:4;stroke-opacity:1;stroke-dasharray:none"
             sodipodi:type="arc" />
        </g>
        <path
           transform="matrix(1.0127852,0,0,0.97242978,481.9771,878.83558)"
           d="m 57.578696,33.424507 c 0,3.486824 -2.713565,6.313453 -6.060916,6.313453 -3.347351,0 -6.060915,-2.826629 -6.060915,-6.313453 0,-3.486824 2.713564,-6.313453 6.060915,-6.313453 3.347351,0 6.060916,2.826629 6.060916,6.313453 z"
           sodipodi:ry="6.3134532"
           sodipodi:rx="6.0609155"
           sodipodi:cy="33.424507"
           sodipodi:cx="51.51778"
           id="path3830"
           style="fill:#000000;fill-opacity:1;stroke:none"
           sodipodi:type="arc" />
      </g>
    </g>
    <g
       id="g5620"
       transform="translate(39.304999,-123.0102)">
      <g
         id="g5622"
         transform="translate(4.7101865e-6,-2.6114321e-7)">
        <g
           id="g5624"
           transform="translate(-179.82284,-14.17323)">
          <path
             transform="matrix(0.59430821,0,0,0.59430821,153.98531,896.50816)"
             d="m 119.08746,131.0789 a 17.780418,17.780418 0 1 1 -35.560841,0 17.780418,17.780418 0 1 1 35.560841,0 z"
             sodipodi:ry="17.780418"
             sodipodi:rx="17.780418"
             sodipodi:cy="131.0789"
             sodipodi:cx="101.30704"
             id="path5626"
             style="fill:#000000;fill-opacity:0;stroke:#000000;stroke-width:0.09;stroke-miterlimit:4;stroke-opacity:1;stroke-dasharray:none"
             sodipodi:type="arc" />
          <path
             transform="matrix(0.86952191,0,0,0.86951974,122.14923,926.73007)"
             d="m 114.95247,128.18442 a 9.0969582,9.0969582 0 1 1 -18.193921,0 9.0969582,9.0969582 0 1 1 18.193921,0 z"
             sodipodi:ry="9.0969582"
             sodipodi:rx="9.0969582"
             sodipodi:cy="128.18442"
             sodipodi:cx="105.85551"
             id="path5628"
             style="fill:#000000;fill-opacity:0;stroke:#000000;stroke-width:0.09;stroke-miterlimit:4;stroke-opacity:1;stroke-dasharray:none"
             sodipodi:type="arc" />
        </g>
        <path
           transform="matrix(1.0127852,0,0,0.97242927,-17.806367,878.83559)"
           d="m 57.578696,33.424507 a 6.0609155,6.3134532 0 1 1 -12.121831,0 6.0609155,6.3134532 0 1 1 12.121831,0 z"
           sodipodi:ry="6.3134532"
           sodipodi:rx="6.0609155"
           sodipodi:cy="33.424507"
           sodipodi:cx="51.51778"
           id="path5630"
           style="fill:#000000;fill-opacity:1;stroke:none"
           sodipodi:type="arc" />
      </g>
      <g
         id="g5632"
         transform="translate(0.35433321,-2.6114321e-7)">
        <g
           transform="translate(-108.4252,-14.17323)"
           id="g5634">
          <path
             sodipodi:type="arc"
             style="fill:#000000;fill-opacity:0;stroke:#000000;stroke-width:0.09;stroke-miterlimit:4;stroke-opacity:1;stroke-dasharray:none"
             id="path5636"
             sodipodi:cx="101.30704"
             sodipodi:cy="131.0789"
             sodipodi:rx="17.780418"
             sodipodi:ry="17.780418"
             d="m 119.08746,131.0789 a 17.780418,17.780418 0 1 1 -35.560841,0 17.780418,17.780418 0 1 1 35.560841,0 z"
             transform="matrix(0.59430821,0,0,0.59430821,153.98531,896.50816)" />
          <path
             sodipodi:type="arc"
             style="fill:#000000;fill-opacity:0;stroke:#000000;stroke-width:0.09;stroke-miterlimit:4;stroke-opacity:1;stroke-dasharray:none"
             id="path5638"
             sodipodi:cx="105.85551"
             sodipodi:cy="128.18442"
             sodipodi:rx="9.0969582"
             sodipodi:ry="9.0969582"
             d="m 114.95247,128.18442 a 9.0969582,9.0969582 0 1 1 -18.193921,0 9.0969582,9.0969582 0 1 1 18.193921,0 z"
             transform="matrix(0.86952191,0,0,0.86951974,122.14923,926.73007)" />
        </g>
        <path
           sodipodi:type="arc"
           style="fill:#000000;fill-opacity:1;stroke:none"
           id="path5640"
           sodipodi:cx="51.51778"
           sodipodi:cy="33.424507"
           sodipodi:rx="6.0609155"
           sodipodi:ry="6.3134532"
           d="m 57.578696,33.424507 a 6.0609155,6.3134532 0 1 1 -12.121831,0 6.0609155,6.3134532 0 1 1 12.121831,0 z"
           transform="matrix(1.0127852,0,0,0.97242978,53.591271,878.83558)" />
      </g>
      <g
         id="g5642"
         transform="translate(0.70866172,-2.6114321e-7)">
        <g
           id="g5644"
           transform="translate(-37.02756,-14.17323)">
          <path
             transform="matrix(0.59430821,0,0,0.59430821,153.98531,896.50816)"
             d="m 119.08746,131.0789 a 17.780418,17.780418 0 1 1 -35.560841,0 17.780418,17.780418 0 1 1 35.560841,0 z"
             sodipodi:ry="17.780418"
             sodipodi:rx="17.780418"
             sodipodi:cy="131.0789"
             sodipodi:cx="101.30704"
             id="path5646"
             style="fill:#000000;fill-opacity:0;stroke:#000000;stroke-width:0.09;stroke-miterlimit:4;stroke-opacity:1;stroke-dasharray:none"
             sodipodi:type="arc" />
          <path
             transform="matrix(0.86952191,0,0,0.86951974,122.14923,926.73007)"
             d="m 114.95247,128.18442 a 9.0969582,9.0969582 0 1 1 -18.193921,0 9.0969582,9.0969582 0 1 1 18.193921,0 z"
             sodipodi:ry="9.0969582"
             sodipodi:rx="9.0969582"
             sodipodi:cy="128.18442"
             sodipodi:cx="105.85551"
             id="path5648"
             style="fill:#000000;fill-opacity:0;stroke:#000000;stroke-width:0.09;stroke-miterlimit:4;stroke-opacity:1;stroke-dasharray:none"
             sodipodi:type="arc" />
        </g>
        <path
           transform="matrix(1.0127852,0,0,0.97242978,124.98891,878.83558)"
           d="m 57.578696,33.424507 a 6.0609155,6.3134532 0 1 1 -12.121831,0 6.0609155,6.3134532 0 1 1 12.121831,0 z"
           sodipodi:ry="6.3134532"
           sodipodi:rx="6.0609155"
           sodipodi:cy="33.424507"
           sodipodi:cx="51.51778"
           id="path5650"
           style="fill:#000000;fill-opacity:1;stroke:none"
           sodipodi:type="arc" />
      </g>
      <g
         id="g5652"
         transform="translate(1.0629922,-2.6114321e-7)">
        <g
           transform="translate(34.370078,-14.17323)"
           id="g5654">
          <path
             sodipodi:type="arc"
             style="fill:#000000;fill-opacity:0;stroke:#000000;stroke-width:0.09;stroke-miterlimit:4;stroke-opacity:1;stroke-dasharray:none"
             id="path5656"
             sodipodi:cx="101.30704"
             sodipodi:cy="131.0789"
             sodipodi:rx="17.780418"
             sodipodi:ry="17.780418"
             d="m 119.08746,131.0789 a 17.780418,17.780418 0 1 1 -35.560841,0 17.780418,17.780418 0 1 1 35.560841,0 z"
             transform="matrix(0.59430821,0,0,0.59430821,153.98531,896.50816)" />
          <path
             sodipodi:type="arc"
             style="fill:#000000;fill-opacity:0;stroke:#000000;stroke-width:0.09;stroke-miterlimit:4;stroke-opacity:1;stroke-dasharray:none"
             id="path5658"
             sodipodi:cx="105.85551"
             sodipodi:cy="128.18442"
             sodipodi:rx="9.0969582"
             sodipodi:ry="9.0969582"
             d="m 114.95247,128.18442 a 9.0969582,9.0969582 0 1 1 -18.193921,0 9.0969582,9.0969582 0 1 1 18.193921,0 z"
             transform="matrix(0.86952191,0,0,0.86951974,122.14923,926.73007)" />
        </g>
        <path
           sodipodi:type="arc"
           style="fill:#000000;fill-opacity:1;stroke:none"
           id="path5660"
           sodipodi:cx="51.51778"
           sodipodi:cy="33.424507"
           sodipodi:rx="6.0609155"
           sodipodi:ry="6.3134532"
           d="m 57.578696,33.424507 a 6.0609155,6.3134532 0 1 1 -12.121831,0 6.0609155,6.3134532 0 1 1 12.121831,0 z"
           transform="matrix(1.0127852,0,0,0.97242978,196.38655,878.83558)" />
      </g>
      <g
         id="g5662"
         transform="translate(1.4173187,-2.6114321e-7)">
        <g
           id="g5664"
           transform="translate(105.76772,-14.17323)">
          <path
             transform="matrix(0.59430821,0,0,0.59430821,153.98531,896.50816)"
             d="m 119.08746,131.0789 a 17.780418,17.780418 0 1 1 -35.560841,0 17.780418,17.780418 0 1 1 35.560841,0 z"
             sodipodi:ry="17.780418"
             sodipodi:rx="17.780418"
             sodipodi:cy="131.0789"
             sodipodi:cx="101.30704"
             id="path5666"
             style="fill:#000000;fill-opacity:0;stroke:#000000;stroke-width:0.09;stroke-miterlimit:4;stroke-opacity:1;stroke-dasharray:none"
             sodipodi:type="arc" />
          <path
             transform="matrix(0.86952191,0,0,0.86951974,122.14923,926.73007)"
             d="m 114.95247,128.18442 a 9.0969582,9.0969582 0 1 1 -18.193921,0 9.0969582,9.0969582 0 1 1 18.193921,0 z"
             sodipodi:ry="9.0969582"
             sodipodi:rx="9.0969582"
             sodipodi:cy="128.18442"
             sodipodi:cx="105.85551"
             id="path5668"
             style="fill:#000000;fill-opacity:0;stroke:#000000;stroke-width:0.09;stroke-miterlimit:4;stroke-opacity:1;stroke-dasharray:none"
             sodipodi:type="arc" />
        </g>
        <path
           transform="matrix(1.0127852,0,0,0.97242978,267.78418,878.83558)"
           d="m 57.578696,33.424507 a 6.0609155,6.3134532 0 1 1 -12.121831,0 6.0609155,6.3134532 0 1 1 12.121831,0 z"
           sodipodi:ry="6.3134532"
           sodipodi:rx="6.0609155"
           sodipodi:cy="33.424507"
           sodipodi:cx="51.51778"
           id="path5670"
           style="fill:#000000;fill-opacity:1;stroke:none"
           sodipodi:type="arc" />
      </g>
      <g
         id="g5672"
         transform="translate(1.7716572,-2.6114321e-7)">
        <g
           transform="translate(177.16535,-14.17323)"
           id="g5674">
          <path
             sodipodi:type="arc"
             style="fill:#000000;fill-opacity:0;stroke:#000000;stroke-width:0.09;stroke-miterlimit:4;stroke-opacity:1;stroke-dasharray:none"
             id="path5676"
             sodipodi:cx="101.30704"
             sodipodi:cy="131.0789"
             sodipodi:rx="17.780418"
             sodipodi:ry="17.780418"
             d="m 119.08746,131.0789 a 17.780418,17.780418 0 1 1 -35.560841,0 17.780418,17.780418 0 1 1 35.560841,0 z"
             transform="matrix(0.59430821,0,0,0.59430821,153.98531,896.50816)" />
          <path
             sodipodi:type="arc"
             style="fill:#000000;fill-opacity:0;stroke:#000000;stroke-width:0.09;stroke-miterlimit:4;stroke-opacity:1;stroke-dasharray:none"
             id="path5678"
             sodipodi:cx="105.85551"
             sodipodi:cy="128.18442"
             sodipodi:rx="9.0969582"
             sodipodi:ry="9.0969582"
             d="m 114.95247,128.18442 a 9.0969582,9.0969582 0 1 1 -18.193921,0 9.0969582,9.0969582 0 1 1 18.193921,0 z"
             transform="matrix(0.86952191,0,0,0.86951974,122.14923,926.73007)" />
        </g>
        <path
           sodipodi:type="arc"
           style="fill:#000000;fill-opacity:1;stroke:none"
           id="path5680"
           sodipodi:cx="51.51778"
           sodipodi:cy="33.424507"
           sodipodi:rx="6.0609155"
           sodipodi:ry="6.3134532"
           d="m 57.578696,33.424507 a 6.0609155,6.3134532 0 1 1 -12.121831,0 6.0609155,6.3134532 0 1 1 12.121831,0 z"
           transform="matrix(1.0127852,0,0,0.97242978,339.18182,878.83558)" />
      </g>
      <g
         id="g5682"
         transform="translate(2.1259857,-2.6114321e-7)">
        <g
           id="g5684"
           transform="translate(248.56299,-14.17323)">
          <path
             transform="matrix(0.59430821,0,0,0.59430821,153.98531,896.50816)"
             d="m 119.08746,131.0789 a 17.780418,17.780418 0 1 1 -35.560841,0 17.780418,17.780418 0 1 1 35.560841,0 z"
             sodipodi:ry="17.780418"
             sodipodi:rx="17.780418"
             sodipodi:cy="131.0789"
             sodipodi:cx="101.30704"
             id="path5686"
             style="fill:#000000;fill-opacity:0;stroke:#000000;stroke-width:0.09;stroke-miterlimit:4;stroke-opacity:1;stroke-dasharray:none"
             sodipodi:type="arc" />
          <path
             transform="matrix(0.86952191,0,0,0.86951974,122.14923,926.73007)"
             d="m 114.95247,128.18442 a 9.0969582,9.0969582 0 1 1 -18.193921,0 9.0969582,9.0969582 0 1 1 18.193921,0 z"
             sodipodi:ry="9.0969582"
             sodipodi:rx="9.0969582"
             sodipodi:cy="128.18442"
             sodipodi:cx="105.85551"
             id="path5688"
             style="fill:#000000;fill-opacity:0;stroke:#000000;stroke-width:0.09;stroke-miterlimit:4;stroke-opacity:1;stroke-dasharray:none"
             sodipodi:type="arc" />
        </g>
        <path
           transform="matrix(1.0127852,0,0,0.97242978,410.57946,878.83558)"
           d="m 57.578696,33.424507 a 6.0609155,6.3134532 0 1 1 -12.121831,0 6.0609155,6.3134532 0 1 1 12.121831,0 z"
           sodipodi:ry="6.3134532"
           sodipodi:rx="6.0609155"
           sodipodi:cy="33.424507"
           sodipodi:cx="51.51778"
           id="path5690"
           style="fill:#000000;fill-opacity:1;stroke:none"
           sodipodi:type="arc" />
      </g>
      <g
         id="g5692"
         transform="translate(2.4803142,-2.6114321e-7)">
        <g
           transform="translate(319.96063,-14.17323)"
           id="g5694">
          <path
             sodipodi:type="arc"
             style="fill:#000000;fill-opacity:0;stroke:#000000;stroke-width:0.09;stroke-miterlimit:4;stroke-opacity:1;stroke-dasharray:none"
             id="path5696"
             sodipodi:cx="101.30704"
             sodipodi:cy="131.0789"
             sodipodi:rx="17.780418"
             sodipodi:ry="17.780418"
             d="m 119.08746,131.0789 a 17.780418,17.780418 0 1 1 -35.560841,0 17.780418,17.780418 0 1 1 35.560841,0 z"
             transform="matrix(0.59430821,0,0,0.59430821,153.98531,896.50816)" />
          <path
             sodipodi:type="arc"
             style="fill:#000000;fill-opacity:0;stroke:#000000;stroke-width:0.09;stroke-miterlimit:4;stroke-opacity:1;stroke-dasharray:none"
             id="path5698"
             sodipodi:cx="105.85551"
             sodipodi:cy="128.18442"
             sodipodi:rx="9.0969582"
             sodipodi:ry="9.0969582"
             d="m 114.95247,128.18442 a 9.0969582,9.0969582 0 1 1 -18.193921,0 9.0969582,9.0969582 0 1 1 18.193921,0 z"
             transform="matrix(0.86952191,0,0,0.86951974,122.14923,926.73007)" />
        </g>
        <path
           sodipodi:type="arc"
           style="fill:#000000;fill-opacity:1;stroke:none"
           id="path5700"
           sodipodi:cx="51.51778"
           sodipodi:cy="33.424507"
           sodipodi:rx="6.0609155"
           sodipodi:ry="6.3134532"
           d="m 57.578696,33.424507 a 6.0609155,6.3134532 0 1 1 -12.121831,0 6.0609155,6.3134532 0 1 1 12.121831,0 z"
           transform="matrix(1.0127852,0,0,0.97242978,481.9771,878.83558)" />
      </g>
    </g>
  </g>
</svg>
